<svg height="75" viewBox="0 0 130 75" width="130" xmlns="http://www.w3.org/2000/svg"><g fill="none" fill-rule="evenodd" stroke="#2626f7" stroke-width="2"><path d="M7 74c-3.87 0-5.87-18.667-6-56h12c-.13 37.333-2.13 56-6 56z" stroke-linejoin="round"/><path d="M11 18c.872-1.899 1.333-3.218 1.333-6 0-3.927-1.777-6.816-5.333-10-3.556 3.184-5.333 6.073-5.333 10 0 2.873.41 4.082 1.333 6M33 2h96v64H33z"/><path d="M41 10h80v48H41z"/><path d="M45 22h8v32h-8zm60-4h16v40h-16zm-64-8h80v8H41zm-8 56h96v8H33z"/></g></svg>