<svg width="473" height="594" viewBox="0 0 473 594" xmlns="http://www.w3.org/2000/svg" xmlns:xlink="http://www.w3.org/1999/xlink"><title>hero-poster</title><defs><path id="a" d="M0 0h432v592H0z"/></defs><g fill="none" fill-rule="evenodd"><g transform="translate(40 1)"><mask id="b" fill="#fff"><use xlink:href="#a"/></mask><use stroke="#2626F7" stroke-width="2" xlink:href="#a"/><path d="M306.7 517.802c-5.9-.4 16.8-128.3 9.4-129.5-7.4-1.1-48.6 80.2-54.5 78.9-5.9-1.3 30-93.3 25.4-93.5-4.6-.2-85.1 122.4-91.5 119.9-6.5-2.5 76.4-135.8 69.9-137.4-6.5-1.6-173.7 165.8-181.5 161.1-7.8-4.7 131.5-151.2 125-154.3-6.5-3.1-104.1 58.7-112.8 56-8.7-2.8 97.7-63.6 96.8-66.2-.8-2.6-95.9 12.3-100.6 9.2-4.6-3 84.2-6.4 117.5-21.9 8.9-4.1-123.8-27.4-119.4-30.7 4.4-3.3 129.6 19.2 131.6 15.1s-146.4-78-141.9-83.2c4.4-5.2 144.5 54.4 155.1 49.6 10.6-4.6-154.8-95-150.3-99.2 4.4-4.2 160.6 86.8 169.2 83.2 8.5-3.6-176.5-129.1-173-130.9 3.5-1.8 159.7 90.7 166.4 87.1 6.7-3.6-63.7-77.1-55.5-78.9 8.2-1.8 61.9 64.4 72.4 61.8 10.4-2.6-18.5-67.3-12.2-67.2 6.3.2 45 79.5 50.8 79.3 5.7-.2 6.8-81.4 12.2-81.3 5.4.2 4.7 121.9 11.4 122.7 6.6.9 56.5-125.1 64.7-124.5 8.2.6-26.6 111.8-6.6 119.3s197.7-120.4 201.2-115.9-135.5 111.2-131.6 114.4c3.9 3.2 127.2-55.2 131.6-51.6 4.4 3.6-122.3 64.4-117.5 69.6 4.8 5.2 117.8-10.9 118.4-6.8.7 4-180.7 32-177.7 43.8 3 11.8 180.7 4.7 179.5 9.2-1.2 4.5-178.7 8-182.4 11.2-3.7 3.2 185.4 52.4 182.4 55.5-3.1 3.1-185.3-38.3-188.9-34.6-3.7 3.7 214.1 149.8 190.8 163.1-23.3 13.3-217.5-151.9-220.9-148-18 20.9 106 143 96.9 143.1-9.9.2-110.1-109.8-119.4-109.9-9.3-.2-34.5 112.8-40.4 112.4z" stroke="#2626F7" stroke-width="2" fill="none" mask="url(#b)"/></g><path d="M415.808 54.952h-11.072L401.984 61h-3.232l11.52-25.152L421.792 61h-3.232l-2.752-6.048zM414.56 52.2l-4.288-9.76-4.288 9.76h8.576zm15.744-2.72v-2.496c2.592 0 4.736-.96 4.736-3.872 0-2.432-1.792-4.128-4.192-4.128-2.176 0-3.68 1.376-4 3.456h-2.976c.576-3.968 3.104-6.08 7.072-6.08 3.84 0 6.976 2.464 6.976 6.496 0 2.368-1.024 4.288-3.072 5.44 2.368 1.12 3.424 3.392 3.424 5.984 0 4.512-3.392 7.232-7.712 7.232-3.776 0-7.168-2.496-7.36-6.464h2.912c.288 2.368 2.368 3.84 4.672 3.84 2.688 0 4.608-2.112 4.608-4.736 0-3.072-2.112-4.896-5.088-4.672zM77.472 555.936h7.296V558H73.08l7.92-9.72c.744-.912 1.608-2.04 1.608-3.24 0-1.896-1.68-3.456-3.552-3.456-1.848 0-3.36 1.488-3.48 3.312H73.32c.36-3.216 2.448-5.376 5.736-5.376 3.072 0 5.712 2.28 5.712 5.424 0 1.344-.504 2.688-1.344 3.72l-5.952 7.272zm13.512 2.448l-1.632-1.128 4.824-6.504-.048-.048c-.528.264-1.128.336-1.752.336-3 0-5.256-2.688-5.256-5.568 0-3.312 2.688-5.952 5.976-5.952 3.12 0 6.024 2.592 6.024 5.784 0 1.8-.912 3.36-1.968 4.776l-6.168 8.304zm2.136-9.264c2.304 0 3.84-1.824 3.84-3.792 0-1.92-1.728-3.792-3.696-3.792-2.16 0-3.984 1.728-3.984 3.792 0 2.16 1.968 3.792 3.84 3.792zm10.104 6.48c.768 0 1.392.648 1.392 1.392a1.393 1.393 0 0 1-2.784 0c0-.744.624-1.392 1.392-1.392zm13.944-13.632h-9.36v-2.064h13.032l-11.28 18.48-1.752-1.08 9.36-15.336zm6.657 9.35v-1.909h22.67v-.136l-5.25-5.25 1.296-1.296 7.636 7.637-7.636 7.636-1.296-1.295 5.25-5.25v-.137h-22.67zM5.54 45.844v2.064H3.572v-2.064H.932v-2.16h2.64v-8.928l16.224 11.088H5.54zm0-2.16h7.464v-.048L5.54 38.548v5.136zM2.996 53.932v7.296H.932V49.54l9.72 7.92c.912.744 2.04 1.608 3.24 1.608 1.896 0 3.456-1.68 3.456-3.552 0-1.848-1.488-3.36-3.312-3.48V49.78c3.216.36 5.376 2.448 5.376 5.736 0 3.072-2.28 5.712-5.424 5.712-1.344 0-2.688-.504-3.72-1.344l-7.272-5.952zm.336 11.88c0 .768-.648 1.392-1.392 1.392a1.393 1.393 0 0 1 0-2.784c.744 0 1.392.624 1.392 1.392zM.548 76.204c0-4.656 5.736-6.312 9.432-6.312 3.72 0 9.432 1.632 9.432 6.312 0 4.68-5.712 6.312-9.432 6.312-3.696 0-9.432-1.656-9.432-6.312zm16.944 0c0-3.24-4.992-4.152-7.488-4.152-2.496 0-7.44.912-7.44 4.152s4.944 4.152 7.44 4.152c2.496 0 7.488-.912 7.488-4.152zM7.614 86.412h1.91v22.67h.136l5.25-5.25 1.295 1.296-7.636 7.636-7.637-7.636 1.296-1.295 5.25 5.25h.136v-22.67z" fill="#2626F7"/></g></svg>