<svg height="72" viewBox="0 0 126 72" width="126" xmlns="http://www.w3.org/2000/svg"><path d="M42.58 28.764c.5-.001.604.138.604.617-.014 14.007-.013 28.013-.003 42.02 0 .44-.082.6-.573.599-4.42-.022-8.841-.022-13.261 0-.496.002-.566-.167-.565-.6.01-9.18.009-18.36.007-27.54 0-.753.084-.648-.644-.65-4.404-.003-8.807-.001-13.211 0-.186 0-.372.012-.557.018l-.001 27.887c0 .865 0 .866-.858.866-4.283 0-8.567-.006-12.85.008-.476 0-.653-.138-.653-.634.01-9.313.009-18.625.01-27.938 0-.067.006-.135.01-.202-.012-.118-.033-.234-.033-.351C0 38.283 0 33.7.002 29.12c0-.117.02-.234.03-.352-.007-.202-.02-.405-.02-.608L.01.83C.01.002.01 0 .844 0h12.699c.837 0 .837 0 .837.82v27.938c.22.006.44.018.66.018 9.18 0 18.359.005 27.54-.012zM69.596 39.32c.007 2.879-.009 5.758.015 8.637.004.465-.136.582-.57.546a9.35 9.35 0 0 0-1.37-.001c-.352.023-.462-.08-.456-.444.022-1.388.01-2.777.01-4.166 0-1.711.003-3.421-.002-5.132-.005-1.59-.998-2.655-2.57-2.771-2.748-.202-4.51 1.536-4.529 4.49-.014 2.49-.014 4.98.008 7.47.004.444-.099.6-.556.556a8.14 8.14 0 0 0-1.37-.002c-.367.026-.444-.11-.443-.455.014-2.896.008-5.792.008-8.688 0-3.371.006-6.741-.009-10.111 0-.371.078-.511.471-.481.488.036.982.029 1.472.002.338-.02.425.098.423.426-.013 2.134-.007 4.268-.007 6.402v.662c1.67-2.19 4.228-2.937 6.757-2.05 1.538.54 2.291 1.703 2.583 3.239.117.62.133 1.246.135 1.87zm56.112 4.717c.088 1.76-.593 3.095-2.16 3.934-1.224.656-2.557.845-4.346.845-.832.004-2.05-.173-3.172-.752-1.54-.794-2.27-2.11-2.415-3.8-.017-.21.058-.278.245-.277h1.829c.183-.002.278.072.302.261.194 1.514 1.238 2.13 2.58 2.388a6.65 6.65 0 0 0 2.87-.085 3.46 3.46 0 0 0 .758-.286c1.317-.68 1.405-2.32.165-3.135-.705-.464-1.521-.642-2.33-.828-1.184-.274-2.39-.47-3.53-.92-1.106-.439-2.044-1.065-2.43-2.275-.6-1.895.282-3.807 2.203-4.616 2.095-.882 4.235-.835 6.33-.019 1.565.607 2.268 1.894 2.456 3.506.033.277-.036.405-.343.394-.56-.018-1.118-.008-1.677-.003-.19.001-.302-.03-.348-.258-.244-1.224-1.082-1.815-2.242-2.038-.931-.18-1.857-.15-2.757.15-.676.224-1.211.617-1.275 1.412-.067.817.403 1.283 1.07 1.614 1.138.565 2.394.71 3.607 1.008.738.182 1.478.36 2.182.653 1.4.582 2.347 1.513 2.428 3.127zm-27.753-9.816c.428-.023.515.08.357.504-1.205 3.246-2.388 6.5-3.578 9.754-.44 1.205-.89 2.409-1.313 3.62-.108.306-.257.419-.583.404a23.956 23.956 0 0 0-1.778-.003c-.241.006-.355-.08-.438-.303a4306.687 4306.687 0 0 0-5.025-13.543c-.135-.362-.044-.443.306-.432.559.018 1.119.03 1.676-.004.388-.024.559.113.682.483 1.208 3.639 2.436 7.271 3.659 10.906.043.129.088.255.182.527.51-1.552.975-2.96 1.436-4.37.783-2.392 1.569-4.783 2.34-7.178.089-.274.219-.375.503-.365.524.02 1.05.026 1.574 0zM85.416 46.645c0 .537-.008 1.06.004 1.582.006.222-.134.294-.294.354-.7.263-1.417.327-2.14.129-.633-.173-.992-.617-1.14-1.241-.055-.227-.09-.457-.135-.687-.134-.028-.176.087-.243.153-2.01 1.936-4.39 2.291-6.965 1.524-1.579-.471-2.389-1.667-2.492-3.295-.105-1.678.402-3.08 2.003-3.893 1.18-.599 2.47-.799 3.755-1.01.834-.136 1.681-.201 2.498-.432.684-.194 1.284-.521 1.35-1.325.071-.844-.176-1.58-.93-2.06-1.098-.7-3.669-.627-4.736.12-.593.416-.91 1.002-.986 1.702-.037.337-.167.424-.478.412a20.38 20.38 0 0 0-1.524 0c-.317.012-.397-.102-.38-.415.1-1.957 1.426-3.523 3.534-4.073a10.004 10.004 0 0 1 4.875-.056c2.051.484 2.97 1.664 2.977 3.763.008 2.456.002 4.911.002 7.367 0 .136-.002.271.001.407.02.973.262 1.172 1.206.995.064-.012.132-.012.238-.021zm-4.82-1.052c.924-.856 1.11-1.931 1.021-3.107 0-.338.006-.677-.002-1.015-.003-.116.041-.324-.202-.21-1.315.622-2.767.572-4.153.846-.614.121-1.222.276-1.759.62-.802.514-1.055 1.278-.975 2.188.066.753.5 1.239 1.162 1.534 1.434.639 3.757.211 4.908-.856zm31.9 1.425c-.014.304-.037.615.005.913.069.484-.19.661-.595.763a4.22 4.22 0 0 1-1.513.098c-.802-.094-1.341-.623-1.502-1.432-.04-.192-.071-.385-.118-.648-.717.726-1.456 1.31-2.36 1.643-1.542.568-3.11.645-4.682.16-1.775-.545-2.732-1.947-2.65-3.798.09-2.025.922-3.137 2.844-3.798 1.4-.48 2.868-.637 4.32-.866.384-.06.77-.13 1.14-.24.624-.184 1.199-.472 1.29-1.203.103-.815-.078-1.553-.781-2.078a2.331 2.331 0 0 0-.92-.415c-1.006-.21-2.017-.222-3.018.036-1.07.275-1.752.944-1.898 2.059-.054.404-.226.486-.585.467a16.08 16.08 0 0 0-1.473 0c-.298.01-.382-.102-.353-.386.178-1.668.918-2.998 2.478-3.692 2.215-.989 4.515-.992 6.779-.196 1.456.513 2.11 1.696 2.122 3.207.022 2.473.006 4.946.007 7.418 0 .254.003.508.013.762.033.814.279 1.032 1.077.892.319-.054.387.052.373.334zm-3.833-3.337c.069-.805.014-1.62.014-2.512-.667.361-1.31.498-1.96.602-.55.089-1.104.147-1.657.225-.804.114-1.607.241-2.331.643-.85.472-1.265 1.326-1.136 2.303.11.842.654 1.423 1.629 1.654 1.336.318 2.626.146 3.818-.54.91-.524 1.53-1.305 1.623-2.375z" fill="#2626f7" fill-rule="evenodd"/></svg>