<svg height="72" viewBox="0 0 119 72" width="119" xmlns="http://www.w3.org/2000/svg"><path d="M13.994 52.536c4.457 0 5.112 2.426 5.112 5.308v8.978h-3.473v-8.716c0-1.834-.459-2.817-2.36-2.817-.524 0-1.376.13-1.965.459.13.655.196 1.31.196 2.031v8.978H8.031v-8.65c0-1.77-.394-2.818-2.294-2.818-.59 0-1.44.13-1.835.394v11.14H.495V53.846c1.507-.852 3.801-1.31 5.963-1.31 1.507 0 2.62.327 3.343.785 1.244-.458 2.752-.786 4.193-.786zm13.827-.065c5.047 0 6.095 2.687 6.095 6.946 0 .394 0 .72-.066 1.115-1.572.262-4.652.59-6.552.72l-2.294.131c.13 2.228 1.244 2.752 3.276 2.752 1.835 0 3.539-.196 4.98-.392l.263 2.686c-1.442.262-3.343.524-6.03.524-4.652.066-5.897-3.014-5.897-7.208 0-5.112 1.573-7.274 6.225-7.274zm2.556 6.16v-.59c0-1.835-.656-2.883-2.621-2.883-2.556 0-2.884 1.639-2.884 3.8l2.426-.064c.916-.067 2.293-.198 3.079-.263zm14.351-5.898v-5.505h3.474v18.414c-1.573.919-3.802 1.31-5.702 1.31-4.587 0-6.553-1.702-6.553-7.272 0-5.44 1.901-7.275 6.16-7.275.853 0 1.835.13 2.621.328zm-.065 11.14v-8.256c-.524-.198-1.31-.328-1.9-.328-3.277 0-3.408 1.9-3.408 4.456 0 2.294.131 4.522 3.08 4.522.786 0 1.704-.132 2.228-.393zm8.192-16.776c1.507 0 2.031.524 2.031 1.966s-.46 1.966-2.031 1.966c-1.573 0-2.032-.524-2.032-1.966s.459-1.966 2.032-1.966zm-1.705 19.66v-14.09h3.474v14.09zM63.143 52.6c3.08 0 5.635.853 5.635 4.523v8.65c-1.507.852-3.8 1.31-6.29 1.31-3.801-.066-5.308-1.573-5.308-4.587 0-2.49 1.048-4.062 3.8-4.456 1.443-.262 2.884-.262 4.457-.327 0-1.64-.721-2.36-2.556-2.36-1.639 0-3.473.197-4.915.394l-.262-2.621c1.442-.263 3.408-.526 5.44-.526zm2.294 11.338v-3.997c-1.048.065-2.228.065-3.211.327-1.18.262-1.704.721-1.704 2.163 0 1.507.852 1.901 2.359 1.901.787 0 1.77-.067 2.556-.394zm12.975-8.781c-3.211 0-3.604.983-3.604 4.324 0 3.146.13 4.523 3.604 4.523.851 0 1.64-.131 2.49-.329l.262 2.753c-1.18.328-2.687.524-4.522.524-4.652 0-5.373-3.604-5.373-7.404 0-4.588 1.049-7.144 6.16-7.144 1.573 0 2.753.262 3.735.525l-.261 2.555c-.852-.196-1.64-.327-2.491-.327zM88.7 52.47c4.588 0 6.226 2.031 6.226 7.274 0 5.242-1.638 7.274-6.226 7.274-4.587 0-6.225-1.965-6.225-7.274 0-5.243 1.638-7.274 6.225-7.274zm-.065 11.665c2.228 0 2.752-.983 2.752-4.391 0-3.407-.59-4.39-2.752-4.39-2.163 0-2.752.917-2.752 4.39 0 3.54.59 4.39 2.752 4.39zm8.584-10.289c1.573-.917 3.801-1.31 5.702-1.31.524 0 .983 0 1.376.065l-.263 2.817c-.261-.065-.653-.065-.982-.065-.786 0-1.835.131-2.359.46v11.008H97.22V53.847zm14.55-1.376c4.585 0 6.552 1.704 6.552 7.274 0 5.44-1.9 7.274-6.16 7.274-.852 0-1.835-.13-2.622-.327V72h-3.473V53.78c1.573-.917 3.801-1.31 5.702-1.31zm-.263 11.73c3.276 0 3.407-1.9 3.407-4.456 0-2.294-.13-4.522-3.08-4.522-.787 0-1.704.13-2.228.393v8.258a5.8 5.8 0 0 0 1.9.327zM12.04 20.412L23.312.465l11.271 19.947H12.041zm70.719.906L71.493 41.17 60.224 21.318H82.76zM71.492.465l11.271 19.947H60.221zM36.135 21.318h23.049l11.53 20.317H47.667zm71.229 0l11.53 20.317H95.846L84.315 21.318zM0 41.635l11.53-20.318h23.05L23.049 41.635zm106.852-21.223h-23.05L72.267 0h23.051zM47.138 0L58.67 20.412H35.62L24.088 0z" fill="#2626f7" fill-rule="evenodd"/></svg>