<svg width="155" height="72" viewBox="0 0 155 72" xmlns="http://www.w3.org/2000/svg"><title>logo-umbrella</title><path d="M72.839 45.708c.23-.811.71-.972 1.463-.594.333.167.634.44.983.527.683.17 1.392.34 2.086.327.705-.014 1.267-.438 1.429-1.193.154-.722-.127-1.322-.66-1.796-.175-.157-.402-.26-.612-.375-1.25-.682-1.465-1.296-.91-2.627.062-.148.131-.295.211-.434.66-1.136 1.763-1.731 2.687-1.454.824.247 1.406 1.323 1.4 2.695-.038.323-.036.766-.15 1.174-.741 2.623-1.789 5.104-3.384 7.328-.016.021-.034.042-.052.062-.803.946-1.66 1.819-3.054 1.445-.974-.26-1.737-1.608-1.737-3.105.001-.662.118-1.341.3-1.98m13.556-28.395c1.79-3.06 3.91-5.834 7.031-7.652 1.48-.86 3.08-1.317 4.803-1.296 3.337.038 6.115 1.512 8.631 3.542 1.074.866 2.007 1.917 2.944 2.94.252.275.284.757.416 1.143-.39.104-.78.302-1.169.297-1.911-.025-3.83-.24-5.732-.134-3.719.206-7.215 1.335-10.474 3.134-1.13.622-2.16.896-3.39.31-.736-.352-1.575-.48-2.366-.715-.883-.261-1.159-.774-.694-1.57M35.456 54.856c-.782.944-1.586 1.896-2.519 2.68-1.583 1.328-4.217 1.318-5.537-.901-.718-1.209-1.038-1.144-2.073-.191-1.275 1.17-2.54 2.395-3.982 3.326-2.072 1.338-4.363 1.516-6.634.403-1.93-.945-2.96-2.562-3.188-4.698-.244-2.287.273-4.466 1.236-6.49 1.114-2.343 2.403-4.603 3.669-6.87 1.45-2.596 3.004-5.132 4.41-7.75.512-.95.88-2.038 1.05-3.105.488-3.043-1.313-5.343-4.387-5.772-3.744-.522-6.979.6-9.62 3.274-2.657 2.69-4.117 5.97-4.208 9.808-.033 1.405.31 2.71 1.182 3.848.819 1.07.543 2.242.217 3.388-.131.46-.554.644-.964.418-.642-.355-1.338-.707-1.822-1.236-1.202-1.312-1.88-2.911-2.124-4.69-.028-.205-.107-.404-.162-.605v-2.258c.217-1.046.359-2.113.663-3.13 1.413-4.73 3.933-8.634 8.414-10.96 2.93-1.52 6.046-2.034 9.307-1.405 5.656 1.09 8.548 6.154 6.652 11.673-.982 2.858-2.47 5.465-4.02 8.041-1.409 2.342-2.844 4.67-4.157 7.065-.984 1.794-1.592 3.724-1.71 5.82-.094 1.688 1.356 3.034 3.117 2.489.988-.306 1.959-.864 2.766-1.522 2.09-1.704 3.774-3.826 5.157-6.122 3.027-5.026 5.914-10.136 8.847-15.219.764-1.323 1.483-2.672 2.224-4.008.622-1.122 1.645-1.671 2.837-1.884 1.101-.196 1.644.438 1.326 1.516-.165.559-.432 1.096-.712 1.61-3.21 5.914-6.361 11.858-8.944 18.086a22.601 22.601 0 0 0-1.033 3.122c-.096.381.139.846.222 1.273.374-.216.856-.345 1.104-.661 1.91-2.418 3.774-4.873 5.652-7.316 1.747-2.274 3.487-4.552 5.243-6.819.327-.421.669-.852 1.08-1.18 1.083-.868 2.432-.455 2.763.89.343 1.39.533 1.393 1.604.426 1.054-.953 2.072-1.947 3.518-2.284 1.655-.385 2.948.12 3.868 1.533 1.048 1.607.993 1.54 2.433.306 1.083-.928 2.265-1.792 3.526-2.44 1.28-.658 2.687-.593 3.78.517 1.106 1.124 1.236 2.51.736 3.97-.72 2.103-1.491 4.19-2.167 6.308-.25.783-.355 1.631-.396 2.456-.02.399.156 1.023.432 1.162.281.14.906-.072 1.184-.338.69-.66 1.376-1.375 1.87-2.188a41.817 41.817 0 0 0 2.38-4.46c2.827-6.252 5.603-12.528 8.386-18.8.2-.453.3-.95.53-1.7-.774.138-1.364.135-1.854.357-.722.328-1.41.766-2.043 1.25-1.03.785-2.04.826-3.208.302-3.726-1.669-7.5-1.596-11.272-.146-.719.275-1.39.673-2.084 1.015-.358.177-.705.387-1.078.525-.811.3-1.626.398-2.316-.28-.668-.656-.575-1.454-.33-2.257.07-.23.16-.457.267-.672 3.708-7.43 8.675-13.78 15.623-18.404C74.428 2.128 79.108.55 84.175.144c.261-.02.519-.095.778-.144h3.2c.812.11 1.638.162 2.434.347.82.192 1.658.42 2.404.801.867.442.851 1.154.017 1.66-1.17.712-2.486 1.073-3.825.954-8.619-.756-15.812 2.344-22.021 8.16a38.463 38.463 0 0 0-5.79 6.866c-.282.426-.327 1.011-.481 1.522.522.075 1.061.271 1.564.201 2.922-.402 5.798-.247 8.619.628.986.305 1.88.192 2.769-.285a20.823 20.823 0 0 1 6.245-2.152c1.027-.181 1.58-.882 2.117-1.685 1.307-1.96 2.522-4.007 4.035-5.794C87.574 9.646 89.132 8.186 90.818 7c4.101-2.882 8.553-2.979 13.084-1.084 3.749 1.568 6.881 4.002 9.29 7.288 1.326 1.81 2.456 3.767 3.624 5.688.452.743.436 1.555-.183 2.242-.586.649-1.323.751-2.125.478-.352-.12-.705-.241-1.052-.378-2.917-1.154-5.946-1.741-9.07-1.53-4.215.283-8.19 1.345-11.566 4.094-.834.677-1.738.733-2.68.194-1.544-.885-3.19-1.467-4.964-1.673-1.24-.144-1.864.117-2.41 1.245a466.503 466.503 0 0 0-4.052 8.578c-.626 1.363-.391 1.76 1.036 2.082 2.756.622 4.582 2.694 4.707 5.548.052 1.19-.036 2.434-.327 3.585-.774 3.066-2 5.95-4.01 8.428-.958 1.18-2.101 2.15-3.583 2.6-1.993.606-3.789.22-5.347-1.192-.258-.233-.491-.493-.745-.732-.704-.664-1.047-.675-1.793-.074-.79.637-1.536 1.34-2.384 1.884a5.026 5.026 0 0 1-1.928.71c-2.267.333-3.848-.993-4.18-3.394-.333-2.406.21-4.699.871-6.977.202-.695.464-1.373.656-2.07.124-.453.171-.926.264-1.446-.78-.09-1.252.26-1.605.727-1.518 2.004-3.104 3.965-4.477 6.067-1.211 1.856-2.169 3.88-3.25 5.824-.193.348-.407.7-.678.987-.443.468-.979.735-1.654.493-.7-.249-1.139-.745-1.17-1.476a4.297 4.297 0 0 1 .225-1.568c.988-2.834 2.027-5.652 3.033-8.48.29-.816.469-1.65.034-2.506-.864.006-1.428.507-1.873 1.112-1.409 1.922-2.842 3.829-4.146 5.822-1.392 2.129-2.642 4.352-3.966 6.527-.264.433-.543.867-.878 1.244-.69.779-1.5.938-2.295.516-.715-.381-1.002-1.084-.793-2.081.126-.603.343-1.185.478-1.786.12-.535.185-1.082.275-1.624l-.234-.157c-.316.242-.696.434-.937.737-.882 1.11-1.68 2.29-2.584 3.382m116.505 1.538c.83.827 1.426 1.897 2.13 2.856v.495c-.85.913-2.155 1.015-3.485.265a2.494 2.494 0 0 1-.533-.374c-2.51-2.442-5.626-3.152-8.95-3.196-6.45-.084-12.772.947-18.986 2.574-5.774 1.511-11.485 3.273-17.228 4.909-2.913.83-5.857 1.323-8.876.612-4.743-1.117-7.652-4.773-7.825-9.726-.108-3.107.542-6.067 1.55-8.958.629-1.811 1.376-3.58 2.06-5.37.446-1.165.277-1.572-.786-2.212-1.02-.613-2.074-1.191-3.012-1.92-1.024-.795-1.632-1.9-1.615-3.27.033-2.641 3.026-4.336 5.276-2.993.665.399.99 1.004.97 1.782a8.23 8.23 0 0 1-.138 1.227c-.24 1.357-.052 1.737 1.21 2.3.519.232 1.052.43 1.571.662 1.723.774 2.044 1.772 1.229 3.495-.995 2.1-2.1 4.17-2.845 6.362-.78 2.294-1.449 4.688-1.713 7.09-.706 6.396 3.965 8.802 8.686 7.94 3.252-.594 6.434-1.63 9.615-2.577 6.56-1.955 13.144-3.792 19.918-4.803 4.309-.642 8.635-1.154 13.002-.736 3.261.312 6.357 1.153 8.775 3.566m-29.448-16.18c2.782-6.389 5.546-12.801 9.29-18.69 1.56-2.453 3.407-4.73 5.237-6.992 1.002-1.238 2.366-2.078 3.923-2.518 2.135-.605 4.367.38 4.903 2.334.249.911.285 1.98.084 2.902-.783 3.6-3.17 5.948-6.223 7.698-.293.167-.67.238-1.011.25-.781.03-1.174-.359-1.123-1.153.085-1.32.611-2.448 1.685-3.232 1.05-.767 1.963-1.635 2.517-2.84.09-.2.247-.4.251-.6.008-.411-.068-.824-.109-1.237-.404.047-.941-.058-1.188.165-1.043.945-2.12 1.894-2.967 3.01-3.295 4.344-5.806 9.17-8.146 14.085a362.078 362.078 0 0 0-3.486 7.596c-.3.67-.598 1.381-.67 2.096-.05.498.145 1.223.497 1.496.27.21 1.106.044 1.424-.251.97-.902 1.898-1.88 2.685-2.948 1.245-1.689 2.337-3.493 3.542-5.214 1.818-2.598 4.068-4.699 7.031-5.891 2.2-.885 4.352-.558 6.436.445.287.138.546.361.773.59.576.58.603 1.008-.005 1.53-1.172 1.004-2.433 1.776-4.058 1.05-1.06-.474-2.065-.238-2.882.478-2.396 2.104-4.292 4.554-4.892 7.821-.044.242-.13.523-.053.73.161.431.334.95.672 1.185.178.126.82-.168 1.064-.444 1.227-1.386 2.391-2.831 3.582-4.252.737-.881 1.487-1.736 2.67-2.041 1.355-.35 2.024.235 1.725 1.624-.148.69-.437 1.35-.668 2.02-.46 1.339-.17 2.407.83 3.035.902.567 1.932.36 2.89-.683.759-.828 1.556-1.576 2.724-1.589.528-.006 1.237.092 1.535.434.243.28.149 1.066-.054 1.505-1.209 2.61-3.085 4.335-5.394 4.388-2.31.03-3.646-.564-4.799-1.685-1.187-1.154-1.352-1.125-2.497.044-.401.408-.802.824-1.25 1.172-1.857 1.44-4.3 1.03-5.613-.92-1.135-1.686-1.164-1.672-2.638-.326-.658.602-1.346 1.212-2.115 1.641-1.651.92-3.383 1.047-4.981-.114-1.63-1.183-2.155-2.917-1.905-4.861.126-.966.37-1.952.757-2.842m-12.871 3.858c2.936-3.411 5.078-7.312 7.096-11.276 2.221-4.36 4.324-8.778 6.62-13.101.933-1.759 2.14-3.405 3.396-4.972 1.675-2.093 4.004-2.985 6.724-2.88.68.026 1.476.026 1.795.726.33.725-.232 1.308-.746 1.718-.64.51-1.358 1.067-2.131 1.258-1.6.393-2.82 1.242-3.638 2.544-1.452 2.313-2.868 4.656-4.135 7.068-2.374 4.523-4.525 9.16-6.978 13.64-1.395 2.549-3.134 4.931-4.862 7.29-.73.998-1.742 1.858-2.775 2.58-4.68 3.274-10.58.747-11.365-4.82-.078-.553-.125-1.11-.19-1.712.314-4.482 2.3-8.117 6.083-10.78 1.006-.708 2.163-1.144 3.442-1.164 2.151-.034 3.621 1.285 3.815 3.376.15 1.638-.443 3.028-1.424 4.3-1.215 1.573-2.832 2.651-4.628 3.494-.615.29-1.256.527-1.888.779-1.5.6-1.766 1.375-.935 2.741.922 1.515 2.676 2.098 4.232 1.224a9.42 9.42 0 0 0 2.492-2.033m-2.804-9.777c-1.106.318-2.58 2.078-2.713 3.237 1.208.198 3.432-1.415 3.575-2.592.068-.575-.257-.82-.862-.645m-18.881 28.56c.418.228.924.742.923 1.125-.001.366-.54.915-.962 1.062-1.18.408-2.412.692-3.64.952-8.096 1.71-16.187 3.441-24.3 5.075-2.461.495-4.983.707-6.627.931-3.247-.11-5.586-.384-7.819-1.212-4.463-1.655-8.512-3.947-11.852-7.3-.432-.433-1.075-.864-.794-1.573.307-.77 1.103-.828 1.839-.852 1.12-.037 2.027.346 2.907 1.078 4.662 3.88 9.859 6.67 16.246 6.178 3.22-.25 6.414-.934 9.587-1.576 7.009-1.418 13.997-2.933 20.993-4.41a4.982 4.982 0 0 1 3.499.522" fill="#2626F7" fill-rule="evenodd"/></svg>