<svg height="64" viewBox="0 0 120 64" width="120" xmlns="http://www.w3.org/2000/svg"><path d="M49.438 39.802c-2.73-.974-2.678-5.116.074-5.909.416-.119 2.642-.131 3.128-.016 3.005.709 2.815 5.38-.246 6.02-.656.137-2.47.079-2.956-.095zm.345-4.856c-1.633.535-1.769 3.026-.205 3.759l.285.134h2.507l.284-.14c1.453-.714 1.44-3.001-.02-3.676-.416-.192-2.34-.243-2.851-.077zm-47.73 4.881c-2.736-.908-2.693-5.207.06-5.947.21-.057.668-.074 2.085-.077l1.815-.003.078.112c.111.16.106.696-.01.834-.085.1-.135.104-1.868.119l-1.78.013-.286.134c-1.42.666-1.463 2.938-.068 3.65l.344.177 1.801.025c2.09.03 1.944-.013 1.944.56 0 .586.118.554-1.996.532-1.675-.018-1.81-.026-2.118-.129zm26.538-2.62c.954-.265.954-2.036 0-2.301-.285-.08-3.528-.07-3.636.01-.076.056-.085.288-.097 2.486-.013 2.332-.017 2.426-.111 2.494-.135.099-.675.094-.82-.007l-.11-.078v-2.945c0-2.271.014-2.96.062-3.007.046-.047.673-.068 1.477-.069l-.245-.002c-.588-.008-.121-.016 1.037-.016s1.639.008 1.07.016c-.327.004-.775.006-1.209.006 1.358.013 2.894.07 3.084.147 1.405.567 1.706 2.732.528 3.787-.444.397-.45.38.313 1.172.67.7.724.793.549.968-.09.091-.155.1-.56.088l-.46-.014-.548-.602c-.302-.331-.66-.72-.797-.864l-.248-.264h-1.033c-1.223 0-1.215.003-1.215-.46 0-.503-.031-.492 1.491-.492.734 0 1.372-.024 1.478-.053zm-15.203 2.64c-2.852-.98-2.866-5.279-.018-5.967.432-.105 2.633-.106 3.074-.002 2.877.678 2.896 5.098.028 5.972-.454.138-2.678.136-3.084-.003zm2.785-4.917c-.335-.086-2.106-.103-2.446-.022-1.728.407-1.936 3.066-.3 3.821.397.183 2.623.167 3.02-.022 1.616-.771 1.43-3.336-.274-3.777zm24.715 2.146c.81-.434.81-1.672.001-2.115-.236-.13-3.55-.155-3.69-.029-.092.083-.096.194-.096 2.46 0 2.772.04 2.575-.527 2.575-.572 0-.526.273-.526-3.105 0-2.608.008-2.913.081-2.986.054-.054.708-.08 1.532-.085-.113 0-.222-.003-.319-.003-.587-.008-.12-.016 1.038-.016s1.638.008 1.068.016c-.26.003-.599.005-.947.006 1.255.013 2.575.067 2.774.147 1.604.648 1.684 3.276.122 4.045-.635.313-3.222.412-3.448.133-.113-.14-.13-.563-.032-.759l.064-.125 1.352-.026c1.263-.023 1.367-.032 1.553-.133zm33.167.735c-1.334 2.263-1.25 2.156-1.7 2.156-.381 0-.557-.088-.557-.277 0-.157 3.215-5.51 3.44-5.727.211-.205.496-.225.691-.05.144.129 3.443 5.57 3.478 5.736.043.215-.144.318-.58.318-.489 0-.463.022-.956-.81-.488-.82-.31-.744-1.762-.744-1.44 0-1.542-.047-1.246-.546.18-.3.199-.307.964-.307 1.078 0 1.089-.03.393-1.178-.449-.74-.499-.803-.645-.817-.198-.02-.091-.177-1.52 2.246zm26.104-1.142c.05-1.237.757-2.43 2.122-2.79.404-.106 2.67-.108 3.085-.002 2.856.729 2.89 5.053.048 5.953-.532.17-2.63.168-3.158 0-1.376-.44-2.074-1.693-2.1-2.947-.01.035-.017-.002-.018-.1-.001-.109.009-.16.021-.114zm3.778-1.802c-1.221-.013-1.413.014-1.814.249-1.286.753-1.175 2.933.183 3.6.246.12.274.123 1.505.123h1.255l.33-.163c1.435-.706 1.435-2.928 0-3.635l-.33-.163-1.13-.011zm14.565-1.067c.315 0 .379.015.422.097.076.14.071 5.587-.003 5.735a.538.538 0 0 1-.737.217c-.042-.023-.471-.429-1.071-1.01.038.044.061.075.053.075-.014 0-.101-.078-.195-.175s-.159-.176-.145-.176l.009.005c-.236-.23-.49-.476-.752-.735-1.205-1.184-2.029-1.958-2.096-1.967-.272-.038-.275-.012-.275 2.024 0 2.195.03 2.077-.51 2.077-.536 0-.493.266-.493-3.004 0-3.077-.006-3.002.269-3.113.396-.16.325-.215 2.63 2.043 2.571 2.52 2.366 2.528 2.366-.092 0-2.153-.04-2.001.528-2.001zm-24.654 1.937c.005-1.019.028-1.834.07-1.877.096-.096.789-.078.902.023.149.135.14 5.834-.01 5.983-.133.134-.72.146-.86.018-.053-.048-.088-1.274-.1-2.609 0 .374-.002.731-.005 1.02-.008.796-.014.16-.014-1.41 0-1.573.006-2.223.014-1.446zm-10.745-1.399c0-.242.024-.402.07-.455.041-.05 1.223-.082 2.486-.09-.38 0-.747-.002-1.038-.006-.725-.007-.132-.013 1.315-.013 1.448 0 2.04.006 1.317.013l-.518.005c1.06.004 1.956.025 1.998.068.095.094.08.816-.018.915-.066.065-.235.078-1.06.078-1.322 0-1.167-.341-1.167 2.562v2.396l-.112.078c-.07.05-.221.079-.415.079-.193 0-.343-.029-.414-.079l-.112-.078v-2.379c0-2.913.15-2.58-1.168-2.58-1.189 0-1.164.012-1.164-.514zm-17.51 3.585c-.177.137-.171.25.152.61-.008-.012-.013-.02-.009-.02.015 0 .102.079.196.176.093.096.159.175.145.175a.282.282 0 0 1-.072-.055l.098.1c.343.348.627.665.632.707.039.285-.077.35-.61.35-.526 0-.368.116-1.39-1.014l-.668-.74h-1.044c-1.23 0-1.203.01-1.203-.474 0-.469-.063-.45 1.55-.479 1.883-.034 2.085-.15 2.085-1.199 0-.695-.196-1.01-.72-1.156-.34-.094-3.517-.066-3.625.032-.087.078-.092.222-.092 2.479v2.396l-.111.078c-.172.12-.713.106-.842-.023-.138-.14-.158-5.759-.02-5.956l.079-.114 2.44.015 2.44.014.335.159c1.49.705 1.63 2.875.254 3.94zM119.733.112c.057.057.093.13.082.163-.012.033-.455 1.457-.986 3.168-.57 1.84-.996 3.133-1.044 3.17-.064.05-.808.063-3.336.063-3.554 0-3.48-.006-3.673.288-.047.072-1.355 4.481-2.906 9.799-1.552 5.318-2.849 9.703-2.883 9.743-.093.114-7.827.112-7.92-.001-.092-.11-.5 1.336 4.06-14.39.52-1.791 1.038-3.577 1.15-3.968.452-1.571.676-1.471-3.316-1.47-3.806 0-3.526-.077-3.642 1.01-.422 3.943-2.582 6.622-5.974 7.413a88.55 88.55 0 0 0-.66.157c-.28.068-.41.196-.403.402.006.135 2.366 5.713 4.429 10.462.215.495.527.46-3.99.46-3.16 0-3.936-.013-3.98-.065-.03-.037-.598-1.42-1.263-3.072l-2.289-5.688c-.594-1.475-1.313-3.262-1.6-3.971-.287-.71-.522-1.323-.522-1.364 0-.22.102-.23 2.406-.23 4.34-.003 5.758-.592 5.964-2.482.157-1.43-.594-2.45-2.13-2.89-.592-.17-6.312-.21-6.575-.047-.256.159-.273.205-1.011 2.837a8810.78 8810.78 0 0 1-1.63 5.791C73.56 24.382 73 26.372 73 26.396c0 .015-.035.063-.079.105-.12.12-7.594.12-7.713 0-.108-.107-.235.378 1.371-5.245l2.077-7.285C71.921 2.499 72.607.129 72.687.068c.175-.13 16.248-.055 16.934.079 2.164.421 3.777 1.555 5.129 3.606.696 1.056.741 1.012 1.644-1.578.38-1.092.734-2.027.783-2.077.087-.086.571-.09 11.27-.09h11.181l.104.104zM19.88 26.53c-1.152.115-19.228.044-19.305-.075-.059-.09 1.749-6.095 1.925-6.392.038-.067.807-.08 6.255-.104 6.81-.031 6.574-.02 7.144-.33.635-.346 1.042-1.251.903-2.01-.15-.81-.646-1.454-2.286-2.966C8.973 9.543 8.535 9.02 8.38 7.336c-.344-3.744 2.7-6.92 6.972-7.271.78-.065 16.47-.069 16.59-.005a.206.206 0 0 1 .096.166c0 .23-1.802 6.323-1.89 6.387-.065.049-1.133.063-4.936.063-5.756 0-5.562-.021-5.931.655-.407.747-.449.688 3.051 4.208 4.131 4.154 4.358 4.495 4.543 6.865.34 4.353-2.527 7.682-6.995 8.126zM71.14 53.6c.134.085.017.288-.72 1.245l-.745.965h-.312c-.386 0-.382-.005-.514.681-.793 4.119-4.306 7.207-8.514 7.488a9.308 9.308 0 0 1-9.645-7.01c-.157-.616-.602-.553 4.04-.568l4.029-.015.15-.15c.08-.082.54-.68 1.02-1.329.627-.85.918-1.202 1.041-1.265.191-.097 10.018-.138 10.17-.042zm-4.786 2.486l.003-.25-2.106-.013c-2.546-.015-2.18-.158-3.143 1.221-.777 1.111-.936 1.293-1.294 1.481l-.226.117-2.564.016c-3.167.017-3.028-.046-2.046.91 3.63 3.532 9.655 2.027 11.235-2.806.076-.233.14-.538.141-.676zm-8.11-.626l-5.044-.013-5.042-.013-.017-.111c-.013-.1 1.283-1.873 1.507-2.058.037-.031.212-.063.388-.072l.32-.015.118-.602a9.316 9.316 0 0 1 7.886-7.47c4.251-.584 8.456 1.912 9.947 5.905.235.628.438 1.39.403 1.502-.027.084-.252.089-3.998.089-3.681 0-3.983.006-4.144.087-.125.064-.42.422-1.08 1.316-.5.676-.985 1.28-1.077 1.342zm-5.29-2.423l.016.14 2.139.014 2.14.013.15-.127c.084-.07.473-.592.865-1.157 1.143-1.649.814-1.524 4.026-1.524 3.165 0 3.053.046 2.124-.872-1.058-1.046-2.25-1.667-3.666-1.91-2.942-.505-5.898 1.012-7.228 3.709-.333.674-.594 1.466-.566 1.714zM27.527 26.396c0-.025.863-3.043 3.058-10.695l2.137-7.446c.594-2.068 1.36-4.742 1.705-5.94.405-1.41.656-2.205.711-2.247.143-.11 12.77-.055 13.334.058 1.175.235 1.9.658 2.469 1.44.385.531.713.665 1.13.468.226-.107.265-.176.6-1.074.16-.427.335-.817.388-.865.115-.1 9.829-.134 11.17-.037 2.076.15 3.327 1.092 3.768 2.835.254 1.003.14 2.843-.258 4.159-.159.527-1.976 6.742-4.291 14.683-.755 2.587-1.4 4.737-1.43 4.775-.095.113-7.626.105-7.74-.008-.101-.102-.116-.014.176-1.05l3.463-12.233c1.432-5.058 1.425-5.01.852-5.768-.514-.682-.864-.785-2.58-.765l-1.286.015-.174.176c-.189.19-.032-.351-4.625 15.918-.568 2.013-1.055 3.688-1.082 3.723-.093.119-7.87.088-7.978-.032-.082-.09-.067-.16.289-1.417.345-1.215 2.166-7.66 2.917-10.321.175-.62.58-2.053.902-3.184.838-2.955.838-2.953.805-3.326-.053-.618-.4-1.116-.974-1.398l-.285-.14-1.553-.013c-1.776-.016-1.8-.011-1.98.404-.05.116-1.009 3.438-2.132 7.381-3.318 11.662-3.422 12.02-3.492 12.064-.037.024-1.82.044-3.962.044-4.027 0-4.052 0-4.052-.184zM23.61 53.253c24.784 0 22.918-.02 22.918.253 0 .104-1.63 2.215-1.748 2.264-.045.018-9.931.035-21.97.037L.924 55.81l-.262-.13c-.878-.438-.884-1.871-.01-2.314l.223-.113h22.736zm94.488.005c1.074.27 1.179 1.986.15 2.458-.297.136-45.458.148-45.608.012a.314.314 0 0 1-.091-.198c0-.113 1.382-1.982 1.636-2.214l.124-.113h21.784c15.726 0 21.847.015 22.005.055z" fill="#2626f7" fill-rule="evenodd"/></svg>