<svg height="72" viewBox="0 0 135 72" width="135" xmlns="http://www.w3.org/2000/svg"><path d="M55.618 44.777c-3.071-1.096-3.013-5.755.083-6.647.468-.134 2.972-.148 3.519-.018 3.38.797 3.167 6.053-.276 6.772-.738.154-2.78.089-3.326-.107zm.388-5.463c-1.837.602-1.99 3.405-.231 4.229l.32.151h2.82l.32-.157c1.636-.804 1.622-3.377-.021-4.136-.468-.216-2.634-.274-3.208-.087zM2.31 44.806c-3.079-1.022-3.03-5.858.067-6.691.237-.064.751-.083 2.345-.086l2.042-.004.088.126c.125.18.12.783-.01.938-.097.114-.153.118-2.103.134l-2.002.015-.322.15c-1.598.75-1.646 3.306-.076 4.108l.387.198 2.026.028c2.351.033 2.187-.014 2.187.63 0 .659.132.623-2.246.599-1.884-.021-2.036-.03-2.383-.145zm29.854-2.948c1.074-.298 1.074-2.291 0-2.589-.32-.089-3.969-.079-4.09.011-.086.064-.096.324-.109 2.797-.015 2.624-.019 2.729-.125 2.806-.152.111-.759.106-.922-.008l-.125-.088v-3.313c0-2.555.017-3.329.07-3.383.052-.053.758-.076 1.662-.077l-.276-.003c-.66-.009-.136-.017 1.167-.017s1.844.008 1.203.017c-.367.005-.87.007-1.359.007 1.527.015 3.255.08 3.47.166 1.58.638 1.92 3.073.593 4.26-.499.447-.505.428.352 1.319.755.786.815.892.618 1.089-.102.102-.174.113-.63.099l-.517-.016-.617-.678c-.34-.372-.743-.809-.897-.972l-.279-.297h-1.162c-1.376 0-1.367.004-1.367-.516 0-.567-.035-.555 1.678-.555.825 0 1.543-.026 1.662-.059zm-17.102 2.97c-3.21-1.103-3.224-5.939-.02-6.714.486-.118 2.962-.119 3.458-.002 3.236.763 3.258 5.735.03 6.72-.51.154-3.012.152-3.468-.005zm3.133-5.532c-.377-.097-2.37-.116-2.752-.025-1.944.458-2.178 3.45-.337 4.3.446.205 2.95.186 3.397-.026 1.818-.868 1.609-3.753-.308-4.249zm27.804 2.415c.91-.489.91-1.881.001-2.38-.266-.146-3.995-.174-4.152-.032-.103.093-.107.218-.107 2.767 0 3.118.045 2.897-.593 2.897-.644 0-.592.307-.592-3.493 0-2.934.01-3.277.091-3.359.061-.061.796-.091 1.723-.096l-.358-.004c-.66-.009-.136-.017 1.167-.017s1.843.008 1.202.017c-.292.004-.674.006-1.065.007 1.411.015 2.896.076 3.12.166 1.805.729 1.895 3.685.137 4.55-.714.352-3.624.464-3.879.15-.127-.157-.146-.633-.035-.854l.072-.141 1.521-.029c1.42-.026 1.537-.036 1.747-.149zm37.313.826c-1.5 2.546-1.406 2.426-1.913 2.426-.429 0-.627-.099-.627-.312 0-.177 3.617-6.199 3.87-6.443.238-.23.558-.253.778-.056.162.145 3.873 6.267 3.912 6.453.05.242-.162.358-.653.358-.549 0-.52.024-1.075-.91-.549-.924-.348-.839-1.982-.839-1.619 0-1.735-.052-1.4-.614.2-.338.222-.345 1.083-.345 1.213 0 1.225-.034.442-1.325-.505-.833-.56-.904-.725-.92-.223-.022-.103-.199-1.71 2.527zm29.367-1.285c.057-1.39.852-2.733 2.387-3.138.455-.12 3.004-.122 3.471-.003 3.213.82 3.252 5.685.054 6.698-.599.19-2.958.19-3.553 0-1.548-.495-2.333-1.905-2.362-3.316-.011.04-.02-.002-.021-.112-.001-.123.01-.18.024-.129zm4.25-2.027c-1.374-.014-1.59.016-2.041.28-1.446.847-1.321 3.3.206 4.05.277.136.309.14 1.693.14h1.412l.372-.185c1.614-.794 1.614-3.294 0-4.089l-.372-.183zm16.386-1.2c.354 0 .426.017.475.109.085.158.08 6.286-.004 6.452a.605.605 0 0 1-.83.244c-.046-.026-.53-.482-1.204-1.137.043.05.069.085.06.085-.016 0-.114-.088-.22-.197-.105-.109-.178-.198-.163-.198.002 0 .007.005.01.006-.265-.258-.55-.536-.846-.827-1.355-1.332-2.282-2.203-2.358-2.213-.305-.042-.31-.013-.31 2.277 0 2.47.034 2.337-.572 2.337-.604 0-.555.299-.555-3.38 0-3.461-.007-3.377.302-3.502.446-.18.366-.242 2.959 2.299 2.893 2.835 2.662 2.844 2.662-.104 0-2.422-.046-2.251.594-2.251zm-27.736 2.179c.006-1.146.03-2.063.079-2.111.108-.108.887-.088 1.014.026.168.152.158 6.563-.01 6.73-.15.15-.81.165-.97.02-.058-.053-.097-1.433-.11-2.934-.001.42-.003.822-.006 1.148-.01.895-.016.18-.016-1.588 0-1.77.007-2.5.016-1.626zM93.49 38.63c0-.272.027-.452.078-.512.047-.056 1.376-.092 2.797-.1-.428-.002-.84-.004-1.168-.008-.815-.008-.148-.015 1.48-.015 1.63 0 2.295.007 1.481.015a85.49 85.49 0 0 1-.582.005c1.193.005 2.2.03 2.248.077.106.106.09.918-.02 1.03-.075.073-.265.087-1.194.087-1.487 0-1.312-.384-1.312 2.882v2.696l-.126.088c-.079.056-.249.088-.467.088-.217 0-.386-.032-.466-.088l-.126-.088v-2.676c0-3.278.17-2.902-1.314-2.902-1.337 0-1.309.013-1.309-.579zm-19.699 4.034c-.199.154-.193.28.171.687-.009-.014-.015-.024-.01-.024.016 0 .114.089.22.198.105.108.18.197.163.197a.318.318 0 0 1-.08-.062l.11.114c.385.39.705.747.711.794.043.32-.087.395-.687.395-.59 0-.414.13-1.563-1.142l-.752-.832H70.9c-1.384 0-1.353.012-1.353-.533 0-.528-.07-.506 1.744-.54 2.118-.037 2.346-.168 2.346-1.348 0-.782-.22-1.136-.81-1.301-.382-.105-3.957-.074-4.079.036-.097.088-.103.25-.103 2.789v2.696l-.125.087c-.194.136-.802.12-.947-.025-.156-.157-.178-6.48-.023-6.701l.09-.128 2.744.017 2.745.016.377.178c1.676.794 1.833 3.235.286 4.432zM134.7.126c.065.064.106.147.093.183-.013.037-.512 1.64-1.11 3.564-.641 2.07-1.12 3.525-1.174 3.567-.071.055-.91.071-3.752.071-4 0-3.916-.007-4.133.324-.053.08-1.524 5.041-3.27 11.023-1.745 5.983-3.204 10.916-3.242 10.961-.105.128-8.806.126-8.911-.001-.103-.124-.562 1.503 4.569-16.188.585-2.016 1.167-4.025 1.293-4.465.508-1.767.76-1.655-3.73-1.654-4.282.001-3.967-.086-4.098 1.136-.475 4.437-2.904 7.451-6.72 8.341l-.742.176c-.317.077-.463.221-.454.452.006.152 2.66 6.427 4.982 11.77.242.557.593.517-4.488.517-3.556 0-4.43-.014-4.478-.073-.033-.041-.673-1.596-1.421-3.455-.75-1.86-1.907-4.74-2.575-6.399-.668-1.66-1.477-3.67-1.8-4.468s-.587-1.488-.587-1.534c0-.248.115-.259 2.706-.26 4.884-.002 6.478-.665 6.71-2.791.177-1.61-.668-2.756-2.397-3.252-.665-.19-7.1-.235-7.396-.052-.288.178-.307.23-1.138 3.191l-1.834 6.515c-2.847 10.105-3.476 12.343-3.476 12.37 0 .017-.04.071-.088.119-.135.135-8.544.135-8.678 0-.121-.121-.264.425 1.543-5.901.897-3.142 1.948-6.831 2.337-8.196C80.91 2.811 81.684.145 81.774.077c.196-.146 18.278-.062 19.05.088 2.435.474 4.249 1.75 5.77 4.057.783 1.188.834 1.139 1.85-1.775.428-1.229.825-2.281.88-2.337.098-.097.643-.101 12.68-.101h12.578l.117.117zM22.366 29.846c-1.296.13-21.63.05-21.718-.084-.066-.102 1.967-6.857 2.165-7.191.043-.075.908-.09 7.037-.117 7.662-.035 7.396-.023 8.037-.371.715-.39 1.173-1.408 1.016-2.261-.168-.911-.726-1.636-2.572-3.337-6.236-5.748-6.729-6.337-6.903-8.232-.387-4.212 3.04-7.785 7.844-8.18C18.15 0 35.802-.004 35.935.068c.06.032.11.116.11.187 0 .259-2.029 7.113-2.127 7.185-.074.055-1.275.07-5.553.07-6.476 0-6.258-.023-6.673.738-.458.84-.505.774 3.433 4.734 4.647 4.673 4.902 5.057 5.11 7.723.382 4.897-2.842 8.642-7.869 9.142zM80.033 60.3c.152.096.02.324-.81 1.4l-.837 1.086h-.351c-.434 0-.43-.005-.58.767-.891 4.633-4.843 8.108-9.577 8.424a10.471 10.471 0 0 1-10.85-7.887c-.177-.693-.678-.622 4.544-.64l4.533-.015.168-.17c.092-.092.608-.765 1.148-1.494.706-.956 1.033-1.353 1.172-1.424.215-.11 11.27-.155 11.44-.047zm-5.383 2.797l.003-.282-2.37-.014c-2.864-.017-2.451-.178-3.535 1.374-.874 1.25-1.053 1.454-1.456 1.666l-.254.132-2.885.017c-3.563.02-3.406-.051-2.301 1.024 4.084 3.974 10.86 2.28 12.639-3.156.086-.263.158-.606.159-.761zm-9.124-.705l-5.674-.014-5.673-.015-.02-.125c-.014-.113 1.445-2.107 1.696-2.315.042-.035.239-.07.437-.08l.36-.018.133-.677c.87-4.433 4.414-7.79 8.872-8.403 4.782-.658 9.513 2.15 11.19 6.642.264.707.493 1.563.453 1.69-.03.094-.283.1-4.498.1-4.141 0-4.48.007-4.661.098-.141.072-.472.475-1.216 1.481-.563.76-1.108 1.44-1.211 1.51zm-5.951-2.726l.018.16 2.406.014 2.407.014.17-.143c.094-.079.532-.665.973-1.3 1.285-1.856.915-1.716 4.529-1.716 3.56 0 3.434.052 2.389-.98-1.19-1.177-2.532-1.876-4.124-2.149-3.31-.568-6.635 1.138-8.131 4.172-.375.76-.67 1.65-.637 1.928zm-28.607-29.97c0-.029.97-3.424 3.44-12.033.656-2.28 1.737-6.05 2.405-8.376l1.918-6.684c.455-1.586.738-2.48.8-2.527.16-.124 14.366-.062 15 .065 1.322.265 2.137.741 2.778 1.621.433.597.802.748 1.27.526.255-.12.299-.198.676-1.208.18-.48.377-.919.437-.973.129-.114 11.057-.15 12.565-.042 2.336.168 3.744 1.228 4.24 3.19.286 1.128.158 3.198-.29 4.678-.18.593-2.223 7.585-4.828 16.518-.85 2.911-1.574 5.33-1.61 5.372-.105.127-8.578.118-8.705-.009-.115-.115-.131-.015.197-1.18.57-2.019 2.567-9.07 3.896-13.763 1.61-5.69 1.603-5.637.959-6.489-.58-.767-.972-.883-2.903-.86l-1.447.016-.196.198c-.212.214-.035-.395-5.203 17.908-.64 2.265-1.187 4.15-1.217 4.188-.104.134-8.853.1-8.975-.036-.092-.1-.076-.18.325-1.594.388-1.367 2.437-8.617 3.282-11.61l1.014-3.583c.943-3.324.943-3.322.906-3.742-.06-.695-.45-1.255-1.096-1.572l-.32-.157-1.748-.015c-1.998-.018-2.024-.013-2.227.454-.056.131-1.135 3.868-2.398 8.304-3.733 13.12-3.85 13.521-3.93 13.572-.041.026-2.047.05-4.456.05-4.531 0-4.56 0-4.56-.208zM26.562 59.91c27.883 0 25.783-.023 25.783.284 0 .118-1.833 2.492-1.966 2.547-.051.02-11.173.04-24.716.042l-24.623.003-.295-.146c-.988-.492-.995-2.105-.011-2.603l.25-.127zm106.3.006c1.207.304 1.325 2.234.168 2.765-.334.153-51.14.166-51.309.013a.353.353 0 0 1-.103-.222c0-.127 1.555-2.23 1.841-2.491l.14-.127h24.507c17.691 0 24.577.017 24.755.062z" fill="#2626f7" fill-rule="evenodd"/></svg>