<svg height="72" viewBox="0 0 165 72" width="165" xmlns="http://www.w3.org/2000/svg"><path d="M87.987 12.502v1.661H85.12V0h4.374l3.301 9.69.1-.005c1.04-3.22 2.078-6.441 3.124-9.683h4.36v14.112c-.327.104-2.26.127-2.846.024v-9.85c-.258.094-.246.295-.296.44-.975 2.805-1.943 5.612-2.914 8.419-.119.346-.245.69-.368 1.035h-2.404l-3.446-9.834-.099.011c-.04.527-.013 1.058-.018 1.587-.005.546-.001 1.092-.001 1.639zm.003 37.588h-2.823c-.093-.345-.128-13.3-.04-14.096.34-.112 3.438-.154 4.373-.05l3.29 9.66.098.008c1.065-3.212 2.068-6.445 3.134-9.677h4.36v14.157h-2.839V40.18c-.257.097-.246.3-.296.443-.975 2.805-1.944 5.612-2.914 8.419-.12.348-.245.693-.373 1.055h-2.41c-1.16-3.257-2.28-6.54-3.445-9.806l-.115.023zM.707 14.127a.09.09 0 0 1-.023-.043c-.013-.126-.035-.253-.035-.38C.652 9.189.656 4.675.661.16.661.116.69.072.713.002h3.045c.974 1.57 1.957 3.15 2.94 4.732l2.969 4.771c.139-.47.062-.862.076-1.245.014-.386.003-.771.003-1.157v-7.1h2.86v14.155c-.122.013-.258.038-.394.039-.755.004-1.511-.014-2.265.01-.319.01-.49-.11-.652-.373-1.771-2.87-3.554-5.732-5.334-8.597-.094-.15-.192-.296-.308-.473-.144.167-.09.346-.09.504-.004 2.764-.002 5.527-.002 8.29v.604H.754c-.023-.016-.037-.024-.047-.035zm2.86 35.963H.74C.63 49.752.585 36.764.703 35.902h.732c.61 0 1.223.02 1.832-.007.35-.016.547.108.73.405 1.591 2.587 3.199 5.163 4.8 7.742.23.369.457.739.69 1.105.045.073.113.132.26.173v-9.311c.366-.128 2.296-.154 2.864-.042v14.124H9.508l-5.83-9.38-.11.033v9.346zm160.784-7.536c.027.222.025.449.025.674v6.365c0 .157-.015.313-.023.495h-2.772v-.522c-.001-1.865.002-3.73-.008-5.594a5.427 5.427 0 0 0-.093-1.005c-.133-.682-.545-1.06-1.227-1.178-1.22-.21-2.088.414-2.26 1.64a8.279 8.279 0 0 0-.08 1.103c-.01 1.672-.005 3.344-.005 5.015v.542h-2.797v-.521c-.002-1.897 0-3.793-.007-5.69a5.438 5.438 0 0 0-.073-.862c-.16-.975-.83-1.325-1.746-1.254-.927.072-1.573.682-1.749 1.598-.06.313-.083.638-.084.958-.008 1.736-.004 3.472-.004 5.208v.555h-2.719c-.102-.343-.15-8.989-.049-10.243h2.623v1.355c.17-.172.26-.25.336-.34 1.262-1.493 3.183-1.593 4.656-.927.406.183.717.483.956.858.077.12.151.241.252.403.115-.118.216-.21.304-.315 1.424-1.677 3.494-1.58 4.968-.868 1.04.503 1.44 1.46 1.576 2.55zM32.772 59.97c.95.26 1.775.737 2.422 1.497.938 1.104.985 2.373.636 3.685-.306 1.153-1.072 1.958-2.123 2.493-1.297.663-2.692.818-4.122.746-.887-.044-1.754-.206-2.581-.542-1.855-.754-2.976-2.35-2.97-4.223 0-.064.011-.127.022-.247h2.95c.027.135.063.27.08.408.106.874.571 1.502 1.362 1.85 1.123.496 2.282.492 3.427.075.514-.187.925-.525 1.07-1.092.148-.582.034-1.108-.466-1.462a4.23 4.23 0 0 0-1.145-.593c-.932-.293-1.891-.504-2.828-.785-.643-.193-1.29-.4-1.898-.684-2.8-1.308-2.638-4.803-.644-6.35.797-.617 1.7-.964 2.679-1.127 1.29-.215 2.566-.103 3.81.286.973.305 1.799.844 2.39 1.7.498.725.725 1.524.677 2.472-.99.026-1.96.015-2.949.005-.03-.13-.06-.235-.079-.342-.171-.977-.784-1.52-1.724-1.709-.585-.118-1.178-.15-1.773-.034-.768.15-1.334.648-1.45 1.295-.113.624.087 1.083.657 1.356.388.185.801.332 1.217.445 1.114.305 2.239.571 3.353.877zm-.845-30.21c.497-.19.888-.522 1.022-1.074.142-.583.004-1.08-.474-1.466-.395-.319-.853-.514-1.334-.648-.943-.264-1.891-.505-2.835-.765-.712-.198-1.413-.431-2.05-.819-.91-.554-1.545-1.321-1.704-2.392-.249-1.68.316-3.036 1.728-4.009.827-.57 1.765-.849 2.75-.947a8.44 8.44 0 0 1 3.246.278c.895.264 1.688.703 2.306 1.42.68.79.98 1.709.946 2.79h-2.965c-.04-.167-.078-.32-.111-.474-.157-.722-.593-1.204-1.285-1.437a4.164 4.164 0 0 0-2.374-.096c-.715.179-1.198.716-1.267 1.355-.062.57.126.985.643 1.231.432.205.89.368 1.352.496 1.005.279 2.027.498 3.027.792a7.442 7.442 0 0 1 1.55.638c2.707 1.522 2.211 4.903.728 6.287a5.342 5.342 0 0 1-2.488 1.305c-1.642.381-3.284.359-4.9-.151-1.07-.339-1.973-.927-2.625-1.86-.564-.807-.806-1.703-.776-2.677.344-.105 2.368-.131 2.985-.04.021.12.048.245.064.371.105.853.55 1.473 1.326 1.82 1.154.518 2.34.522 3.515.073zm32.398 28.006c.018.164.047.3.048.436.001 3.117.007 6.234-.007 9.35-.002.445-.064.9-.166 1.334-.326 1.398-1.285 2.25-2.577 2.7-1.558.543-3.152.558-4.726.014-.743-.257-1.379-.687-1.846-1.334a2.656 2.656 0 0 1-.532-1.58h2.724c.016.02.03.03.036.043.543 1.102 1.41 1.54 2.627 1.33.93-.16 1.507-.702 1.714-1.657.151-.691.082-1.39.085-2.156-.109.088-.153.11-.178.145-.66.956-1.624 1.334-2.731 1.37a5.687 5.687 0 0 1-1.573-.152c-1.252-.32-2.118-1.14-2.574-2.333-.617-1.614-.663-3.26-.081-4.903a4.635 4.635 0 0 1 1.1-1.734c1.309-1.316 3.338-1.318 4.533-.83.458.187.823.494 1.128.878l.283.358.087-.023v-1.227c.478-.051.908-.023 1.334-.027.415-.006.831-.002 1.292-.002zm-2.938 6.556c.257-.535.318-1.105.318-1.52-.03-.781-.091-1.388-.367-1.949-.4-.813-1.057-1.214-1.963-1.236-.89-.022-1.552.347-1.98 1.12-.123.222-.22.467-.28.713a4.725 4.725 0 0 0 .03 2.43c.1.363.292.714.506 1.027.27.396.675.638 1.153.73 1.11.211 2.093-.293 2.583-1.315zm23.87-6.626c1.132.347 2.001 1.046 2.516 2.103.983 2.018 1.054 4.095.097 6.136-1.012 2.16-3.248 2.762-5.095 2.216a3.367 3.367 0 0 1-1.639-1.05c-.061-.071-.126-.14-.273-.301-.007.492-.014.88-.017 1.268-.003.401 0 .803 0 1.204v2.35c-.375.103-2.207.12-2.77.028V57.792h2.62v1.16l.089.034c.078-.082.164-.157.234-.246.585-.734 1.365-1.102 2.282-1.191.657-.064 1.317-.049 1.957.147zm.214 6.894c.15-.503.196-1.036.29-1.555-.062-.721-.125-1.422-.451-2.07-.453-.903-1.164-1.386-2.197-1.346-1.042.039-1.72.6-2.063 1.536a5.106 5.106 0 0 0-.005 3.542c.37 1.039 1.193 1.565 2.304 1.542 1.01-.021 1.813-.616 2.122-1.65zM24.378 48.056c.026.673.029 1.35.305 2.034h-2.8l-.215-.846c-.063.028-.137.044-.188.087-1.15.972-2.51 1.143-3.94 1.025a3.57 3.57 0 0 1-.613-.121c-1.438-.38-2.214-1.383-2.23-2.87-.013-1.436.685-2.45 2.07-2.826.861-.235 1.761-.331 2.644-.49.441-.08.893-.124 1.322-.247.647-.186.842-.473.823-1.067-.02-.634-.328-1.053-.91-1.204a3.465 3.465 0 0 0-1.529-.042c-.668.127-1.091.51-1.242 1.18-.018.078-.034.156-.057.265h-2.757a2.774 2.774 0 0 1 .488-1.641c.516-.774 1.266-1.226 2.14-1.465 1.485-.407 2.983-.383 4.476-.02.17.041.336.108.498.176 1.123.469 1.722 1.286 1.715 2.53-.01 1.702-.003 3.406-.003 5.108 0 .145-.003.29.003.434zm-2.876-1.219c.066-.533.011-1.08.011-1.65-.322.1-.607.207-.9.272-.295.066-.605.071-.9.137-.482.107-.978.193-1.43.378-.604.246-.852.8-.753 1.456.09.595.476.968 1.14 1.047a5.37 5.37 0 0 0 1.053.017c.95-.075 1.661-.714 1.779-1.657zm47.635 2.393c-.058.03-.117.047-.161.083-1.47 1.173-3.13 1.339-4.868.827-1.28-.376-1.954-1.442-1.935-2.84.02-1.43.699-2.39 2.082-2.765.847-.23 1.729-.329 2.597-.483.41-.072.828-.11 1.231-.21.708-.176.986-.505.966-1.067-.026-.699-.354-1.143-1.03-1.254a5.109 5.109 0 0 0-1.384-.031c-.688.077-1.137.482-1.286 1.18-.017.079-.041.155-.07.263H62.52c.008-.64.189-1.203.549-1.712.464-.654 1.104-1.068 1.853-1.317a7.626 7.626 0 0 1 3.09-.34c.54.047 1.08.141 1.614.246a3 3 0 0 1 .718.268c.986.48 1.51 1.257 1.507 2.373-.004 1.67 0 3.34 0 5.011 0 .882-.007 1.765.297 2.64h-2.787zm-1.893-.74c.864-.073 1.557-.664 1.707-1.517.101-.577.093-1.173.14-1.86-.686.317-1.287.392-1.889.488-.502.079-1.014.192-1.479.389-.608.257-.837.84-.709 1.53.097.52.502.886 1.126.956.364.04.739.044 1.104.013zm8.567 11.94c-.006 1.718 0 3.437-.001 5.156 0 .819.01 1.637.298 2.472h-2.782l-.229-.87c-.08.05-.153.081-.21.132-.758.67-1.682.916-2.654 1.008-.707.066-1.412.031-2.096-.19-1.175-.38-1.876-1.237-1.966-2.468a4.346 4.346 0 0 1 .06-1.196c.207-.981.848-1.622 1.781-1.912.7-.218 1.433-.337 2.157-.471.488-.09.986-.128 1.478-.198a3.16 3.16 0 0 0 .516-.118c.607-.192.86-.498.852-1.013-.008-.65-.324-1.139-.91-1.26a4.834 4.834 0 0 0-1.335-.086c-.884.068-1.403.573-1.508 1.481h-2.775c.01-.686.207-1.279.61-1.802.543-.705 1.28-1.124 2.123-1.331 1.425-.35 2.863-.334 4.294-.016.248.055.49.153.723.26 1.036.471 1.579 1.266 1.574 2.422zm-2.883 4.433c.08-.552.08-1.115.12-1.732-.422.12-.738.228-1.063.295-.391.08-.796.105-1.186.193-.388.086-.788.174-1.144.344-.576.275-.8.832-.682 1.504.088.509.46.877 1.068.954.424.053.865.064 1.288.009.85-.112 1.48-.73 1.6-1.567zm62.006-20.937c.056.348.075.702.098 1.055.014.205.003.412.003.674h-7.421c-.043 1.319.495 2.19 1.507 2.493 1.108.331 2.529.157 3.28-1.2h2.421c-.373 1.192-.96 2.154-2.03 2.757-.998.563-2.084.73-3.21.651a6.369 6.369 0 0 1-1.233-.202c-1.949-.533-3.264-2.121-3.515-4.206-.13-1.07-.074-2.122.31-3.135.855-2.25 2.997-3.453 5.359-3.257 2.658.22 4.082 2.214 4.431 4.37zm-7.295-.08h4.494c-.006-1.327-.962-2.241-2.273-2.2-1.332.043-2.312 1.002-2.221 2.2zm-11.851 13.855c1.326.39 2.268 1.235 2.875 2.462.53 1.074.71 2.214.635 3.457h-7.381c-.153 1.3.525 2.293 1.726 2.546.886.186 1.735.1 2.447-.525.226-.198.402-.453.634-.722h2.322c-.007.089.002.168-.021.237-.574 1.674-1.712 2.725-3.462 3.06-1.19.228-2.372.173-3.504-.292-1.76-.722-2.641-2.124-2.94-3.937-.193-1.164-.098-2.315.384-3.401.83-1.871 2.286-2.885 4.326-3.047.66-.051 1.318-.027 1.959.162zm-3.871 4.108h4.518c-.172-1.566-1.051-2.276-2.533-2.186-.935.057-2.077.898-1.985 2.186zm31.645-21.401v-.58h2.784V50.08h-2.604v-1.387c-.13.107-.186.135-.216.18-.719 1.046-1.771 1.456-2.98 1.496a5.919 5.919 0 0 1-1.525-.174c-1.039-.243-1.74-.907-2.014-1.934a7.904 7.904 0 0 1-.27-1.9c-.033-2.055-.013-4.112-.011-6.169 0-.109.019-.218.032-.355h2.751c.009.168.025.34.025.51.002 1.703-.007 3.406.007 5.109.004.463.031.935.124 1.387.197.95.73 1.353 1.709 1.342a3.3 3.3 0 0 0 .76-.1c.529-.135.91-.46 1.128-.968.212-.495.29-1.017.29-1.551.007-1.72.007-3.439.01-5.158zM44.915 50.3a6.299 6.299 0 0 1-2.441-.081c-1.873-.432-3.094-1.579-3.636-3.411a6.381 6.381 0 0 1 .028-3.755c.6-1.936 1.946-3.046 3.913-3.421a5.966 5.966 0 0 1 2.77.118c1.966.557 3.124 1.882 3.54 3.861.096.453.11.923.162 1.384-.024.784-.138 1.542-.429 2.268-.71 1.773-2.052 2.738-3.907 3.037zm-3.23-3.54c.247.662.677 1.182 1.365 1.395 1.133.352 2.635.125 3.153-1.611.15-.501.185-1.036.273-1.555-.047-.641-.125-1.26-.36-1.85-.384-.955-1.179-1.487-2.203-1.493-1.018-.005-1.831.52-2.202 1.485a5.23 5.23 0 0 0-.281 1.213c-.102.82-.039 1.635.254 2.417zm55.019 10.932c1.97.535 3.16 1.824 3.6 3.801.105.467.122.953.179 1.43-.03.732-.113 1.448-.364 2.135-.653 1.79-1.947 2.821-3.796 3.173a6.286 6.286 0 0 1-2.723-.077c-1.725-.431-2.898-1.488-3.459-3.17a6.3 6.3 0 0 1 .04-4.208c.687-1.911 2.104-2.942 4.082-3.209.813-.109 1.639-.092 2.44.125zm.645 7.052c.232-.576.3-1.18.294-1.794.008-.649-.058-1.288-.317-1.888-.411-.95-1.134-1.444-2.183-1.445-1.05-.002-1.802.479-2.179 1.443a5.075 5.075 0 0 0-.013 3.72c.377 1 1.131 1.464 2.21 1.46 1.063-.004 1.788-.499 2.188-1.496zm-86.735-2.618c.036.286.035.577.05.865l.054.012c-.108.614-.157 1.246-.334 1.84-.503 1.679-1.619 2.78-3.312 3.26-1.168.33-2.35.33-3.517-.015-1.593-.47-2.674-1.503-3.2-3.073-.487-1.447-.481-2.918.068-4.346.735-1.91 2.195-2.908 4.204-3.116.882-.091 1.77-.057 2.62.236 2.062.711 3.102 2.228 3.367 4.337zm-3.072 2.652c.242-.59.317-1.208.304-1.841.013-.633-.062-1.252-.301-1.842-.39-.962-1.168-1.478-2.212-1.477-1.034 0-1.841.52-2.194 1.495a5.195 5.195 0 0 0-.002 3.637c.362.99 1.135 1.488 2.19 1.49 1.073.002 1.814-.484 2.215-1.462zm47.436-22.905c-.573.127-.938.53-1.141 1.078-.227.614-.254 1.257-.258 1.9-.006 1.543-.002 3.086-.002 4.629v.612h-2.793V39.844h2.633v1.379c.125-.1.19-.133.228-.186.872-1.206 2.101-1.577 3.513-1.477.427.03.862.119 1.268.259.935.324 1.531 1.007 1.751 1.96.143.62.227 1.268.236 1.905.03 2.025.012 4.05.011 6.075 0 .095-.016.19-.027.32h-2.78v-.527c0-1.752.013-3.504-.009-5.256a6.671 6.671 0 0 0-.184-1.425c-.151-.643-.59-1.034-1.258-1.078a4.26 4.26 0 0 0-1.188.08zm47.973 5.917a8.489 8.489 0 0 1-.136-1.436c-.014-2.024-.006-4.048-.005-6.072 0-.14.018-.28.029-.446h2.77v.522c.002 1.815-.009 3.63.012 5.445.005.428.081.862.182 1.28.15.628.588.977 1.22 1.076.467.074.927.032 1.373-.137.428-.162.754-.446.913-.87.128-.343.224-.705.274-1.067.055-.395.056-.8.058-1.202.005-1.494.002-2.987.002-4.481v-.559h2.783v10.241h-2.638V48.69c-.117.112-.167.146-.198.192-.731 1.063-1.804 1.462-3.03 1.49a5.6 5.6 0 0 1-1.568-.202c-1.198-.327-1.826-1.197-2.04-2.38zM52.27 60.173c.077.458.12.926.123 1.39.014 2.024.007 4.048.006 6.072 0 .125-.014.25-.025.42h-2.752c-.007-.185-.02-.355-.02-.526-.001-1.767.01-3.534-.008-5.301a5.601 5.601 0 0 0-.169-1.33c-.203-.79-.642-1.12-1.448-1.168a3.735 3.735 0 0 0-.672.022c-.715.088-1.218.464-1.476 1.145-.22.58-.263 1.19-.265 1.801-.004 1.59-.001 3.181-.001 4.772v.514c-.375.108-2.118.132-2.785.043V57.803h2.644v1.304l.097.016c.067-.082.137-.16.202-.245.647-.845 1.523-1.264 2.565-1.334a6.43 6.43 0 0 1 1.345.037c1.49.214 2.386 1.098 2.639 2.592zm70.392-15.257c.598.423.88 1.044.901 1.782.047 1.678-.842 2.927-2.489 3.401a7.823 7.823 0 0 1-4.468-.015c-1.152-.344-2.026-1.039-2.41-2.228-.1-.313-.132-.647-.206-1.021h2.636c.03.042.06.066.064.092.107.847.632 1.311 1.415 1.508.553.14 1.122.147 1.663-.052.249-.092.502-.234.689-.419.499-.495.404-1.194-.202-1.548a3.56 3.56 0 0 0-.844-.342c-.774-.211-1.556-.388-2.332-.592a9.092 9.092 0 0 1-1.1-.348c-1.576-.642-1.927-1.703-1.605-3.215.162-.764.64-1.318 1.306-1.712.49-.29 1.026-.452 1.585-.545 1.188-.197 2.372-.193 3.532.149 1.304.383 2.175 1.204 2.443 2.58.021.109.02.222.033.391h-2.585c-.029-.025-.068-.044-.071-.067-.112-.75-.598-1.092-1.299-1.22-.48-.087-.958-.099-1.433.018-.397.098-.723.285-.795.732-.07.434.104.773.596.989.422.185.876.306 1.324.424.791.21 1.6.357 2.378.603.45.142.887.38 1.274.655zM15.327 54.018c.899-.231 1.808-.154 2.744-.067v2.042h-.482c-.273.003-.548-.017-.818.014-.428.049-.688.282-.74.7-.04.327-.008.664-.008 1.057h1.889v1.88h-1.924l-.002 4.229v4.166h-2.805v-8.361h-1.669v-1.913h1.656c0-.254-.012-.46.003-.662.023-.335.023-.68.105-1.002.277-1.085.958-1.802 2.051-2.083zm14.651-12.321c-.02.16-.048.281-.049.402-.003 1.557-.01 3.114.002 4.672.007 1.04.25 1.262 1.298 1.255.239-.002.478 0 .755 0v2.062c-.101.03-.205.08-.311.087-.93.054-1.863.105-2.784-.084-1.139-.233-1.745-.99-1.752-2.197-.01-1.847-.002-3.693-.003-5.54v-.641H25.45V39.82h1.664v-3.003c.379-.117 2.164-.14 2.803-.04v3.009c.71.05 1.378 0 2.07.035v1.876zM74.26 50.12c-.102-.38-.14-13.305-.044-14.188h2.725V50.12zm30.55 9.442c.896-1.443 2.108-2.215 3.89-1.99.063.867.021 1.707.029 2.585-.278-.013-.513-.02-.75-.034-2.063-.127-2.92 1.148-3.027 2.77-.032.496-.018.996-.02 1.493-.002 1.076 0 2.152-.001 3.228 0 .127-.01.253-.02.436h-2.73c-.11-.343-.156-9.3-.057-10.194.322-.111 1.814-.142 2.607-.048.076.282.031.586.039.883.007.283.002.565.04.871zm-67.05 8.485c-.097-.368-.118-9.653-.021-10.238h2.726v10.238zm-3.904-17.96V39.845h2.76v10.242zm6.606 6.013c-.336.097-2.043.124-2.747.04v-2.247h2.747zm-6.586-17.924v-2.242h2.733v2.211c-.354.096-2.06.117-2.733.031z" fill="#2626f7" fill-rule="evenodd"/></svg>