<svg height="72" viewBox="0 0 101 72" width="101" xmlns="http://www.w3.org/2000/svg"><path d="M30.29 28.772v-3.504l-2.358-1.058c-1.666-.747-3.696-1.122-6.897-1.271-4.948-.23-7.823.397-8.618 1.882-.902 1.688.818 2.905 5.707 4.035 3.391.785 10.846 2.87 12.041 3.368.069.028.124-1.524.124-3.452zm0 33.342v-9.886l-1.963.948c-1.08.521-3.13 1.198-4.556 1.505-3.146.674-15.216.308-19.675-.599l-3.103-.63v-4.878c0-2.683.062-4.877.136-4.877s2.337.558 5.03 1.24c5.367 1.363 11.171 1.628 13.206.603.756-.381 1.302-1.132 1.394-1.922.23-1.97-1.747-3.172-7.25-4.406C3.124 36.883 0 34.132 0 27.31c0-3.552.944-6.077 3.128-8.37 4.15-4.358 8.53-5.772 16.71-5.4 3.383.155 6.626.588 7.907 1.058 2.716.993 2.544 1.024 2.544-.447v-1.24H43.2v5.01l1.862-1.49c3.473-2.781 8.249-3.953 12.662-3.109l2.36.452V0h12.908v9.434c0 5.189.184 9.435.41 9.435.225 0 .952-.58 1.614-1.29 2.962-3.177 10.056-5.148 15.14-4.208 4.712.87 6.833 2.502 8.677 6.67 1.447 3.269 1.741 7.361 1.585 22.042l-.133 12.538H87.393V41.66c0-10.966-.124-13.222-.811-14.67-1.058-2.229-3.221-3.346-5.806-3-2.374.319-3.998 1.444-6.17 4.274-1.01 1.316-1.698 1.856-1.837 1.444-.123-.364-.481-1.665-.797-2.892-1.297-5.056-4.361-9.09-8.521-11.218-1.288-.66-2.819-1.2-2.958-1.2-.14 0 .047 4.079-.027 9.063-.121 8.141-.197 8.854-.757 7.016-1.788-5.874-7.85-8.237-13.903-5.42L43.2 26.272v16.467l2.359 1.018c3.718 1.604 6.898 1.72 9.559.347 1.843-.951 2.515-1.717 3.844-4.38l1.609-3.228.004 8.847.004 8.847 1.117-.348c3.793-1.182 8.63-6.907 10.095-11.947.427-1.467.872-2.668.99-2.668.116 0 .212 3.464.212 7.697v7.697l-6.58.042c-3.618.023-7.881.203-9.474.402-3.798.474-8.73-.148-11.214-1.415-1.093-.56-2.11-1.016-2.257-1.016s-.268 4.357-.268 9.683V72H30.289v-9.886z" fill="#2626f7" fill-rule="evenodd"/></svg>