<svg width="112" height="80" viewBox="0 0 112 80" xmlns="http://www.w3.org/2000/svg"><title>logo-sph</title><path d="M33.655 31.969v-3.893l-2.62-1.176c-1.85-.83-4.106-1.246-7.663-1.412-5.498-.256-8.692.44-9.575 2.09-1.003 1.877.909 3.229 6.341 4.485 3.768.872 12.051 3.188 13.379 3.742.076.03.138-1.694.138-3.836zm0 37.047V58.03l-2.181 1.054c-1.199.579-3.477 1.33-5.062 1.672-3.495.749-16.906.342-21.861-.665l-3.448-.7v-5.42c0-2.982.069-5.42.151-5.42.083 0 2.597.62 5.589 1.379 5.964 1.514 12.413 1.808 14.674.669.84-.423 1.446-1.258 1.548-2.135.256-2.19-1.941-3.525-8.055-4.896C3.471 40.982 0 37.924 0 30.345c0-3.947 1.049-6.752 3.476-9.301 4.611-4.841 9.478-6.413 18.566-6 3.759.173 7.362.654 8.786 1.176 3.017 1.104 2.827 1.138 2.827-.496v-1.38H48v5.57l2.069-1.656c3.859-3.09 9.165-4.392 14.069-3.454l2.621.502V0h14.344v10.483c0 5.765.205 10.483.456 10.483.25 0 1.058-.645 1.793-1.434 3.291-3.53 11.174-5.72 16.823-4.675 5.235.967 7.592 2.78 9.641 7.41 1.607 3.633 1.934 8.18 1.761 24.492l-.148 13.93H97.103v-14.4c0-12.183-.138-14.69-.901-16.3-1.175-2.475-3.579-3.716-6.451-3.331-2.638.353-4.442 1.603-6.855 4.748-1.122 1.462-1.887 2.062-2.042 1.604-.136-.404-.534-1.85-.885-3.213-1.441-5.618-4.846-10.1-9.468-12.465C69.07 16.599 67.369 16 67.214 16c-.156 0 .053 4.53-.029 10.069-.135 9.046-.22 9.838-.842 7.796-1.986-6.527-8.722-9.153-15.447-6.022L48 29.19v18.298l2.621 1.13c4.131 1.784 7.664 1.913 10.621.387 2.048-1.057 2.795-1.908 4.271-4.867l1.788-3.586.005 9.83.004 9.83 1.241-.387c4.215-1.314 9.589-7.675 11.217-13.275.474-1.63.969-2.964 1.099-2.964s.236 3.849.236 8.552v8.552l-7.31.047c-4.021.025-8.758.226-10.527.447-4.22.526-9.7-.165-12.46-1.573-1.215-.621-2.344-1.128-2.508-1.128-.164 0-.298 4.84-.298 10.758V80H33.655V69.016z" fill="#2626F7" fill-rule="evenodd"/></svg>