<svg height="96" viewBox="0 0 220 96" width="220" xmlns="http://www.w3.org/2000/svg"><path d="M117.316 16.669v2.215h-3.823V0h5.833l4.401 12.92.134-.007 4.164-12.91h5.815v18.816c-.437.139-3.015.169-3.796.032V5.717c-.343.126-.328.393-.395.586-1.3 3.74-2.59 7.484-3.884 11.226-.16.461-.328.92-.491 1.38h-3.206c-1.529-4.364-3.061-8.739-4.595-13.112l-.131.015c-.053.703-.018 1.41-.024 2.115-.007.729-.002 1.457-.002 2.186zm.003 50.117h-3.763c-.123-.46-.17-17.732-.052-18.794.451-.15 4.582-.205 5.83-.066l4.385 12.879.131.011c1.42-4.283 2.759-8.593 4.18-12.903h5.812v18.876h-3.784V53.573c-.343.13-.328.4-.395.591-1.301 3.74-2.592 7.482-3.886 11.225-.16.464-.327.924-.497 1.407h-3.214c-1.546-4.343-3.04-8.72-4.593-13.075l-.154.03zM.942 18.836c-.013-.016-.028-.037-.03-.057-.018-.169-.046-.338-.046-.507C.869 12.252.874 6.233.882.213c0-.058.037-.117.068-.21h4.06l3.921 6.31 3.958 6.36c.185-.626.083-1.15.102-1.66.019-.514.004-1.028.004-1.543V.004h3.814v18.874c-.164.017-.345.05-.527.05-1.007.006-2.014-.018-3.02.014-.424.013-.653-.147-.868-.496-2.362-3.827-4.74-7.644-7.113-11.463-.124-.2-.256-.395-.41-.632-.192.223-.12.462-.12.673-.005 3.685-.004 7.37-.004 11.053v.806H1.005c-.03-.022-.05-.032-.063-.048zm3.814 47.95H.986C.84 66.336.78 49.018.938 47.87h.975c.815 0 1.63.026 2.443-.01.466-.02.73.144.974.541 2.121 3.449 4.264 6.884 6.4 10.323.306.492.608.984.918 1.472.062.098.153.177.347.231V48.012c.49-.171 3.063-.205 3.82-.056v18.832h-4.138c-2.587-4.164-5.18-8.336-7.774-12.507l-.147.044zm214.378-10.048c.036.297.033.599.034.899.002 2.828.002 5.658 0 8.487 0 .209-.02.417-.03.66h-3.696v-.696c-.002-2.486.002-4.972-.01-7.458a7.236 7.236 0 0 0-.126-1.34c-.176-.91-.726-1.415-1.636-1.572-1.625-.28-2.783.552-3.013 2.186-.068.487-.105.981-.107 1.472-.012 2.23-.005 4.458-.005 6.687v.722h-3.73v-.695c-.003-2.529 0-5.057-.01-7.587a7.251 7.251 0 0 0-.097-1.148c-.214-1.3-1.108-1.767-2.328-1.672-1.235.096-2.097.908-2.332 2.13-.08.418-.11.85-.112 1.277-.01 2.315-.005 4.63-.005 6.944v.74h-3.625c-.137-.456-.2-11.985-.065-13.657h3.496v1.807c.227-.229.347-.332.448-.453 1.683-1.991 4.244-2.125 6.209-1.236.54.244.955.644 1.274 1.143.103.16.201.322.336.538.153-.158.288-.281.406-.42 1.898-2.236 4.658-2.106 6.623-1.157 1.388.67 1.921 1.946 2.101 3.399zM43.696 79.959c1.266.348 2.366.983 3.23 1.997 1.25 1.472 1.313 3.164.848 4.913-.41 1.538-1.43 2.61-2.83 3.325-1.73.883-3.591 1.09-5.498.994-1.182-.06-2.338-.275-3.441-.723-2.473-1.006-3.967-3.133-3.96-5.63 0-.086.015-.17.03-.33h3.934c.036.18.083.36.105.544.141 1.166.763 2.002 1.816 2.467 1.498.66 3.043.656 4.57.1.686-.25 1.234-.7 1.426-1.457.198-.775.047-1.476-.62-1.948-.466-.329-.987-.622-1.527-.791-1.244-.391-2.522-.673-3.77-1.047-.859-.258-1.722-.534-2.531-.911-3.733-1.744-3.518-6.405-.86-8.466 1.063-.824 2.267-1.287 3.572-1.504 1.72-.286 3.421-.138 5.08.381 1.299.406 2.399 1.126 3.186 2.267.665.966.968 2.033.904 3.296-1.32.035-2.614.02-3.932.006-.04-.173-.08-.313-.105-.456-.229-1.302-1.045-2.025-2.3-2.278-.779-.158-1.57-.201-2.362-.045-1.025.2-1.78.863-1.936 1.727-.15.832.117 1.443.878 1.807a9.667 9.667 0 0 0 1.622.593c1.485.408 2.985.762 4.471 1.17zm-1.127-40.278c.663-.254 1.184-.697 1.363-1.433.189-.778.005-1.44-.632-1.954-.526-.426-1.137-.686-1.779-.865-1.256-.351-2.521-.673-3.78-1.02-.949-.263-1.883-.575-2.733-1.092-1.214-.738-2.06-1.762-2.272-3.19-.331-2.24.42-4.047 2.304-5.344 1.103-.76 2.354-1.132 3.667-1.263 1.459-.146 2.912-.046 4.328.37 1.194.352 2.25.938 3.074 1.894.906 1.054 1.307 2.278 1.261 3.721h-3.953c-.052-.224-.104-.428-.148-.633-.209-.962-.79-1.606-1.712-1.916a5.551 5.551 0 0 0-3.167-.129c-.952.239-1.596.955-1.689 1.807-.082.761.168 1.314.858 1.642.576.273 1.187.49 1.803.661 1.34.372 2.702.665 4.036 1.056a9.922 9.922 0 0 1 2.066.85c3.609 2.03 2.948 6.539.971 8.384-.952.888-2.069 1.45-3.317 1.74-2.19.508-4.38.478-6.535-.202-1.425-.451-2.629-1.236-3.5-2.48-.75-1.075-1.073-2.271-1.034-3.57.459-.14 3.158-.174 3.98-.054.029.161.065.328.086.497.14 1.137.734 1.963 1.768 2.427 1.539.69 3.119.695 4.686.096zm43.198 37.34c.024.22.062.4.063.582.002 4.155.01 8.31-.008 12.465a8.065 8.065 0 0 1-.221 1.78c-.436 1.864-1.714 3-3.437 3.6-2.077.724-4.203.743-6.302.018-.99-.342-1.837-.915-2.46-1.778-.448-.618-.703-1.301-.71-2.107h3.632c.021.026.04.04.048.058.724 1.469 1.88 2.052 3.503 1.773 1.239-.213 2.008-.936 2.286-2.21.2-.92.108-1.854.112-2.874-.145.117-.204.146-.237.193-.88 1.274-2.165 1.779-3.641 1.826-.698.022-1.423-.03-2.097-.202-1.67-.427-2.824-1.52-3.433-3.111-.823-2.152-.884-4.347-.108-6.537a6.18 6.18 0 0 1 1.468-2.311c1.744-1.756 4.45-1.758 6.043-1.107.61.249 1.098.658 1.503 1.17l.379.477.116-.03v-1.637c.637-.068 1.21-.03 1.778-.036.554-.007 1.109-.002 1.723-.002zm-3.917 8.742c.343-.714.423-1.474.424-2.028-.04-1.04-.122-1.85-.49-2.597-.533-1.084-1.409-1.62-2.617-1.65-1.186-.028-2.07.463-2.64 1.494a3.963 3.963 0 0 0-.375.951 6.3 6.3 0 0 0 .041 3.241c.135.483.39.951.675 1.37.36.527.9.85 1.537.971 1.48.282 2.79-.39 3.445-1.752zm31.827-8.835c1.509.463 2.667 1.394 3.354 2.803 1.31 2.692 1.405 5.461.13 8.182-1.35 2.88-4.332 3.683-6.794 2.955a4.489 4.489 0 0 1-2.185-1.4c-.082-.095-.169-.186-.365-.402-.01.656-.019 1.174-.022 1.691-.004.535 0 1.07 0 1.606v3.132c-.5.138-2.943.16-3.693.038V77.056h3.493v1.547l.118.045c.105-.109.22-.21.313-.328.78-.979 1.819-1.47 3.041-1.588.878-.085 1.757-.065 2.61.196zm.284 9.192c.2-.67.262-1.381.386-2.073-.081-.962-.166-1.896-.6-2.762-.605-1.203-1.553-1.846-2.93-1.794-1.389.053-2.292.8-2.75 2.05-.57 1.557-.564 3.157-.007 4.721.492 1.386 1.59 2.087 3.072 2.057 1.348-.029 2.417-.821 2.83-2.2zM32.504 64.074c.035.898.038 1.8.407 2.712h-3.734l-.286-1.128c-.084.038-.183.059-.251.117-1.533 1.296-3.346 1.523-5.254 1.366a4.759 4.759 0 0 1-.817-.161c-1.916-.507-2.952-1.845-2.972-3.828-.019-1.914.913-3.266 2.758-3.767 1.15-.313 2.35-.442 3.527-.653.588-.106 1.19-.166 1.762-.33.863-.247 1.123-.63 1.098-1.422-.028-.846-.438-1.404-1.215-1.605a4.62 4.62 0 0 0-2.037-.056c-.89.17-1.455.68-1.657 1.573l-.076.353h-3.676c-.018-.82.216-1.534.65-2.188.689-1.032 1.689-1.635 2.853-1.954 1.982-.542 3.978-.51 5.97-.026.227.055.447.145.664.235 1.497.625 2.296 1.715 2.285 3.373-.014 2.27-.003 4.54-.003 6.811 0 .193-.004.386.004.578zm-3.835-1.625c.088-.71.016-1.44.016-2.2-.43.133-.81.276-1.2.363-.395.088-.807.095-1.201.182-.643.143-1.304.258-1.908.505-.805.328-1.135 1.067-1.002 1.941.12.793.634 1.29 1.52 1.396.462.055.939.06 1.403.023 1.267-.1 2.215-.952 2.372-2.21zm63.514 3.191c-.078.04-.157.063-.215.11-1.96 1.564-4.173 1.785-6.49 1.103-1.707-.501-2.607-1.922-2.581-3.787.026-1.907.932-3.186 2.776-3.686 1.13-.308 2.306-.438 3.463-.644.547-.097 1.104-.146 1.642-.28.944-.235 1.314-.673 1.287-1.423-.035-.932-.471-1.524-1.373-1.671a6.811 6.811 0 0 0-1.845-.042c-.918.103-1.516.642-1.715 1.574-.023.104-.055.206-.094.35H83.36a3.91 3.91 0 0 1 .731-2.282c.618-.872 1.472-1.425 2.47-1.756 1.339-.445 2.721-.576 4.12-.454.722.062 1.44.188 2.153.327.33.066.652.208.958.358 1.314.64 2.013 1.676 2.009 3.164-.006 2.227-.001 4.454-.001 6.682 0 1.176-.01 2.353.397 3.52H92.48l-.298-1.163zm-2.524-.988c1.152-.096 2.076-.884 2.276-2.021.134-.77.124-1.565.187-2.482-.915.424-1.717.524-2.519.652-.67.105-1.352.256-1.972.518-.811.343-1.116 1.12-.945 2.04.128.695.668 1.183 1.5 1.276a7.63 7.63 0 0 0 1.473.017zm11.423 15.922c-.008 2.29 0 4.582-.002 6.873 0 1.092.014 2.183.397 3.297h-3.709l-.305-1.16c-.108.066-.205.108-.28.175-1.011.893-2.242 1.222-3.54 1.344-.942.09-1.881.043-2.794-.252-1.566-.508-2.5-1.65-2.62-3.291-.038-.529-.03-1.08.079-1.595.275-1.308 1.13-2.162 2.375-2.55.933-.29 1.911-.448 2.876-.627.65-.121 1.315-.17 1.97-.264.232-.033.464-.086.688-.157.81-.256 1.146-.664 1.137-1.352-.012-.865-.433-1.518-1.214-1.68a6.445 6.445 0 0 0-1.78-.114c-1.18.09-1.87.764-2.011 1.975h-3.7c.013-.915.277-1.705.814-2.403.724-.94 1.705-1.499 2.83-1.775 1.901-.466 3.818-.444 5.726-.02.33.073.654.203.963.345 1.383.63 2.106 1.688 2.1 3.23zm-3.844 5.91c.105-.737.107-1.487.16-2.31-.563.16-.985.304-1.418.393-.522.108-1.061.14-1.582.258-.517.115-1.05.233-1.525.46-.768.366-1.065 1.108-.91 2.004.119.679.615 1.17 1.425 1.272a6.792 6.792 0 0 0 1.717.012c1.135-.15 1.974-.974 2.133-2.09zm82.674-27.916c.075.463.1.936.13 1.406.019.273.004.55.004.9h-9.894c-.058 1.758.66 2.92 2.01 3.323 1.477.442 3.371.21 4.373-1.6h3.228c-.498 1.59-1.28 2.873-2.706 3.676-1.331.75-2.78.973-4.282.869a8.492 8.492 0 0 1-1.643-.27c-2.598-.71-4.352-2.829-4.687-5.609-.172-1.425-.098-2.829.414-4.18 1.14-3 3.995-4.603 7.145-4.342 3.545.292 5.443 2.952 5.908 5.827zm-9.727-.106h5.993c-.009-1.77-1.283-2.99-3.031-2.933-1.776.057-3.082 1.335-2.962 2.933zm-15.801 18.472c1.768.52 3.025 1.647 3.833 3.283.708 1.432.948 2.952.847 4.609h-9.841c-.204 1.735.7 3.058 2.301 3.395 1.182.248 2.313.134 3.263-.7.301-.264.535-.604.845-.962h3.095c-.009.118.004.224-.028.315-.765 2.233-2.281 3.633-4.615 4.08-1.586.305-3.163.23-4.672-.39-2.345-.962-3.521-2.831-3.921-5.248-.256-1.553-.13-3.087.513-4.535 1.107-2.494 3.048-3.846 5.769-4.062.878-.07 1.756-.036 2.611.215zm-5.161 5.478h6.024c-.23-2.088-1.402-3.035-3.377-2.915-1.247.076-2.77 1.197-2.647 2.915zm42.192-28.535v-.772h3.713v13.668h-3.472v-1.85c-.174.144-.248.181-.288.24-.958 1.396-2.361 1.942-3.974 1.996-.675.023-1.37-.078-2.032-.232-1.385-.324-2.32-1.21-2.686-2.579a10.54 10.54 0 0 1-.36-2.532c-.043-2.742-.017-5.484-.015-8.226 0-.146.026-.292.042-.474h3.67c.011.224.032.452.032.68.003 2.27-.01 4.541.01 6.812.004.617.041 1.246.165 1.85.262 1.266.973 1.803 2.278 1.788a4.34 4.34 0 0 0 1.015-.133c.704-.18 1.213-.614 1.503-1.29.282-.66.386-1.357.388-2.069.008-2.292.008-4.585.011-6.877zM59.886 67.067a8.399 8.399 0 0 1-3.254-.108c-2.497-.576-4.125-2.105-4.848-4.549a8.509 8.509 0 0 1 .037-5.006c.8-2.58 2.595-4.062 5.217-4.562a7.954 7.954 0 0 1 3.693.157c2.623.744 4.167 2.51 4.722 5.149.127.604.147 1.23.215 1.846-.031 1.044-.184 2.055-.572 3.023-.947 2.364-2.735 3.651-5.21 4.05zm-4.307-4.72c.33.883.903 1.575 1.821 1.86 1.511.47 3.514.167 4.204-2.148.199-.669.247-1.381.364-2.073-.062-.856-.166-1.682-.48-2.467-.511-1.274-1.572-1.984-2.937-1.99-1.358-.008-2.442.693-2.936 1.98-.197.512-.307 1.069-.375 1.616-.136 1.094-.052 2.18.339 3.222zm73.36 14.576c2.626.712 4.213 2.43 4.8 5.068.14.622.162 1.27.238 1.907-.04.976-.15 1.93-.485 2.846-.87 2.385-2.596 3.761-5.061 4.23a8.382 8.382 0 0 1-3.631-.102c-2.3-.575-3.864-1.984-4.611-4.226-.621-1.862-.613-3.759.054-5.612.915-2.547 2.803-3.923 5.442-4.278 1.083-.145 2.184-.123 3.254.167zm.86 9.403c.309-.768.4-1.574.392-2.393.01-.865-.078-1.718-.423-2.517-.548-1.267-1.512-1.925-2.911-1.927-1.4-.003-2.403.638-2.904 1.924-.637 1.634-.639 3.318-.019 4.96.503 1.333 1.509 1.952 2.946 1.947 1.418-.006 2.386-.665 2.919-1.994zM14.153 82.835c.047.38.046.769.066 1.153l.071.016c-.143.819-.209 1.661-.445 2.452-.67 2.24-2.158 3.708-4.415 4.347a8.31 8.31 0 0 1-4.69-.02c-2.124-.626-3.565-2.004-4.268-4.096-.647-1.93-.64-3.891.092-5.795.98-2.548 2.927-3.878 5.605-4.155 1.177-.122 2.36-.075 3.493.315 2.75.948 4.137 2.97 4.49 5.783zm-4.097 3.535c.323-.786.423-1.61.406-2.454.017-.844-.083-1.67-.402-2.456-.52-1.283-1.557-1.97-2.95-1.97-1.378.002-2.454.694-2.925 1.994-.582 1.604-.589 3.243-.003 4.849.483 1.32 1.514 1.984 2.921 1.987 1.431.003 2.418-.645 2.953-1.95zm63.248-30.54c-.764.17-1.25.707-1.521 1.437-.303.82-.34 1.677-.344 2.534-.008 2.057-.003 4.115-.003 6.172v.817h-3.724V53.126h3.51v1.838c.167-.134.254-.178.305-.249 1.162-1.607 2.802-2.102 4.683-1.969.57.04 1.15.159 1.691.345 1.247.433 2.042 1.344 2.335 2.614.191.828.303 1.691.315 2.54.04 2.7.015 5.4.014 8.1 0 .127-.02.254-.036.428h-3.706v-.704c0-2.336.017-4.672-.012-7.008a8.895 8.895 0 0 0-.246-1.9c-.201-.857-.787-1.379-1.677-1.438a5.68 5.68 0 0 0-1.584.107zm63.964 7.89a11.319 11.319 0 0 1-.18-1.915c-.02-2.698-.01-5.397-.007-8.095 0-.188.023-.375.037-.596h3.694v.696c.002 2.42-.011 4.84.017 7.26.006.572.108 1.15.241 1.707.201.837.785 1.302 1.627 1.435a3.536 3.536 0 0 0 1.831-.183c.57-.216 1.006-.595 1.217-1.161.171-.457.298-.94.366-1.421.074-.528.075-1.068.076-1.603.008-1.992.003-3.983.003-5.975v-.745h3.712v13.655h-3.518v-1.86c-.156.15-.222.194-.264.256-.975 1.417-2.406 1.949-4.04 1.985a7.467 7.467 0 0 1-2.091-.269c-1.597-.435-2.435-1.595-2.72-3.171zM69.692 80.23c.103.61.16 1.234.164 1.852.018 2.699.009 5.398.008 8.097 0 .167-.019.334-.033.56h-3.67c-.01-.247-.025-.474-.026-.7-.002-2.357.013-4.713-.011-7.07a7.469 7.469 0 0 0-.225-1.774c-.271-1.051-.856-1.492-1.93-1.556a4.98 4.98 0 0 0-.897.029c-.954.118-1.624.619-1.968 1.527-.292.773-.35 1.586-.353 2.402-.006 2.12-.002 4.241-.002 6.362v.685c-.5.144-2.824.177-3.713.058V77.07h3.526v1.74l.128.02c.09-.108.184-.214.27-.326.863-1.127 2.03-1.686 3.42-1.779a8.57 8.57 0 0 1 1.794.05c1.987.285 3.18 1.463 3.518 3.456zm93.856-20.344c.798.564 1.175 1.392 1.202 2.376.063 2.238-1.124 3.904-3.319 4.536-1.978.57-3.984.567-5.958-.02-1.536-.459-2.701-1.386-3.212-2.971-.134-.417-.177-.863-.276-1.362h3.515c.04.057.08.088.086.124.142 1.128.843 1.748 1.887 2.01.737.186 1.495.196 2.216-.07.332-.122.67-.312.919-.558.665-.66.539-1.592-.27-2.064a4.746 4.746 0 0 0-1.125-.456c-1.031-.282-2.074-.518-3.109-.79-.495-.131-.993-.27-1.467-.464-2.101-.856-2.57-2.27-2.14-4.286.217-1.019.855-1.758 1.742-2.283.653-.387 1.367-.603 2.113-.727 1.584-.262 3.163-.256 4.71.199 1.738.51 2.9 1.606 3.257 3.44.028.145.026.296.044.522h-3.447c-.038-.034-.09-.059-.095-.09-.149-1-.797-1.456-1.732-1.626-.64-.116-1.277-.132-1.91.023-.53.131-.964.38-1.06.977-.093.578.139 1.03.794 1.318.564.247 1.168.409 1.766.566 1.055.278 2.132.476 3.17.804.6.188 1.183.507 1.7.872zM20.436 72.024c1.198-.308 2.41-.205 3.659-.09v2.723h-.643c-.364.004-.73-.022-1.09.019-.57.065-.918.376-.987.933-.054.437-.011.885-.011 1.41h2.518v2.507h-2.564l-.003 5.638v5.555h-3.74v-11.15H15.35v-2.55h2.208c0-.338-.016-.611.003-.882.031-.447.03-.906.14-1.336.37-1.446 1.278-2.402 2.735-2.777zm19.535-16.429c-.027.214-.065.376-.065.536-.004 2.077-.014 4.153.001 6.23.01 1.387.334 1.683 1.731 1.673.32-.002.639 0 1.007 0v2.75c-.135.04-.273.107-.415.115-1.24.072-2.484.14-3.712-.11-1.518-.312-2.327-1.322-2.335-2.93-.012-2.463-.003-4.924-.004-7.387v-.855h-2.245v-2.524h2.217v-4.004c.506-.156 2.887-.185 3.738-.054v4.013c.947.068 1.837 0 2.761.047v2.5zm59.042 11.232c-.135-.506-.187-17.739-.059-18.916h3.634v18.916zm40.734 12.59c1.195-1.924 2.81-2.954 5.187-2.652.084 1.155.027 2.275.038 3.446-.37-.017-.685-.027-.999-.046-2.752-.17-3.894 1.53-4.036 3.695-.043.66-.025 1.326-.027 1.99-.004 1.434 0 2.869-.003 4.303 0 .17-.013.337-.025.582h-3.64c-.148-.458-.209-12.4-.076-13.593.429-.148 2.417-.188 3.475-.064.101.377.042.781.052 1.178.01.377.002.754.054 1.161zM50.345 90.73c-.129-.49-.158-12.87-.028-13.65h3.635v13.65zM45.14 66.783V53.127h3.68v13.656zm8.808 8.017c-.448.13-2.723.165-3.663.053v-2.995h3.663zm-8.78-23.9v-2.99h3.643v2.95c-.472.127-2.747.155-3.644.04z" fill="#2626f7" fill-rule="evenodd"/></svg>