<svg height="90" viewBox="0 0 130 90" width="130" xmlns="http://www.w3.org/2000/svg"><path d="M17 33C8.163 33 1 25.837 1 17S8.163 1 17 1s16 7.163 16 16-7.163 16-16 16zm0 8c8.837 0 16 7.163 16 16v32H1V57c0-8.837 7.163-16 16-16zm48-8c-8.837 0-16-7.163-16-16S56.163 1 65 1s16 7.163 16 16-7.163 16-16 16zm0 8c8.837 0 16 7.163 16 16v32H49V57c0-8.837 7.163-16 16-16zm48-8c-8.837 0-16-7.163-16-16s7.163-16 16-16 16 7.163 16 16-7.163 16-16 16zm0 8c8.837 0 16 7.163 16 16v32H97V57c0-8.837 7.163-16 16-16z" fill="none" stroke="#2626f7" stroke-width="2"/></svg>