<?xml version="1.0" encoding="UTF-8"?>
<svg width="93px" height="64px" viewBox="0 0 93 64" version="1.1" xmlns="http://www.w3.org/2000/svg" xmlns:xlink="http://www.w3.org/1999/xlink">
    <!-- Generator: Sketch 49.3 (51167) - http://www.bohemiancoding.com/sketch -->
    <title>A3</title>
    <desc>Created with Sketch.</desc>
    <defs></defs>
    <g id="Page-1" stroke="none" stroke-width="1" fill="none" fill-rule="evenodd">
        <g id="yandp-desktop" transform="translate(-170.000000, -3532.000000)" fill="#2626F7">
            <g id="Format" transform="translate(0.000000, 3152.000000)">
                <g id="Group-9" transform="translate(96.000000, 312.000000)">
                    <path d="M112.48,110.48 L86,110.48 L77.92,130.32 L74,130.32 L99.28,68 L124.48,130.32 L120.56,130.32 L112.48,110.48 Z M111.04,106.88 L99.28,77.76 L87.44,106.88 L111.04,106.88 Z M149.04,100.72 L149.04,97.12 C156.16,96.96 161.84,91.92 161.84,84.56 C161.84,78 156.4,72.8 149.92,72.8 C142.96,72.8 138.64,77.36 138.24,84.24 L134.4,84.24 C135.04,75.12 140.64,69.2 150,69.2 C158.64,69.2 165.68,76 165.68,84.72 C165.68,90.88 162.24,96.24 156.64,98.72 C162.72,101.04 166.56,107.04 166.56,113.36 C166.56,123.36 158.96,131.12 148.88,131.12 C139.84,131.12 132.08,124.8 132.16,115.52 L136,115.52 C136.64,122.48 141.44,127.52 148.8,127.52 C156.4,127.52 162.72,121.12 162.72,113.6 C162.72,105.76 156.56,100.72 149.04,100.72 Z" id="A3"></path>
                </g>
            </g>
        </g>
    </g>
</svg>