<svg height="64" viewBox="0 0 93 64" width="93" xmlns="http://www.w3.org/2000/svg"><path d="M38.48 42.48H12L3.92 62.32H0L25.28 0l25.2 62.32h-3.92zm-1.44-3.6L25.28 9.76 13.44 38.88zm38-6.16v-3.6c7.12-.16 12.8-5.2 12.8-12.56C87.84 10 82.4 4.8 75.92 4.8c-6.96 0-11.28 4.56-11.68 11.44H60.4C61.04 7.12 66.64 1.2 76 1.2c8.64 0 15.68 6.8 15.68 15.52 0 6.16-3.44 11.52-9.04 14 6.08 2.32 9.92 8.32 9.92 14.64 0 10-7.6 17.76-17.68 17.76-9.04 0-16.8-6.32-16.72-15.6H62c.64 6.96 5.44 12 12.8 12 7.6 0 13.92-6.4 13.92-13.92 0-7.84-6.16-12.88-13.68-12.88z" fill="#2626f7" fill-rule="evenodd"/></svg>