<svg height="594" viewBox="0 0 473 594" width="473" xmlns="http://www.w3.org/2000/svg"><g fill="none" fill-rule="evenodd"><g stroke="#2626f7" stroke-width="2"><path d="M40 1h432v592H40z"/><path d="M471.5 321.615c-13.422-1.092-22.251-2.76-22.899-5.313-.693-2.724 8.446-6.312 22.899-10.268m0 56.17c-18.558-3.51-31.371-5.556-32.3-4.602-.936.937 12.337 11.01 32.3 25.744m0-48.904c-14.936.775-24.95 1.525-25.8 2.26-.896.775 9.529 4.252 25.8 9.12"/><path d="M471.5 242.734c-23.374 13.479-41.644 22.189-47.3 20.068-20-7.5 14.8-118.7 6.601-119.3-8.2-.6-58.101 125.4-64.7 124.5-6.701-.8-6-122.5-11.401-122.7-5.399-.1-6.5 81.1-12.2 81.3-5.8.2-44.5-79.1-50.8-79.3-6.3-.1 22.601 64.6 12.2 67.2-10.5 2.6-64.2-63.6-72.4-61.8-8.199 1.8 62.2 75.3 55.5 78.9-6.699 3.6-162.899-88.9-166.399-87.1s181.5 127.3 173 130.9c-8.601 3.6-164.8-87.4-169.201-83.2-4.5 4.2 160.901 94.6 150.3 99.2-10.599 4.8-150.7-54.8-155.099-49.6-4.5 5.2 143.899 79.1 141.899 83.2s-127.199-18.4-131.6-15.1c-4.4 3.3 128.3 26.6 119.401 30.7-33.301 15.5-122.101 18.9-117.5 21.9 4.699 3.1 99.8-11.8 100.599-9.2.901 2.6-105.5 63.4-96.799 66.2 8.7 2.7 106.299-59.1 112.799-56s-132.799 149.6-125 154.3c7.8 4.7 175-162.7 181.5-161.1s-76.4 134.9-69.9 137.4c6.4 2.5 86.9-120.1 91.5-119.9 4.601.2-31.3 92.2-25.399 93.5 5.899 1.3 47.099-80 54.5-78.9 7.399 1.2-15.3 129.1-9.401 129.5 5.901.4 31.101-112.6 40.401-112.4 6.125.066 51.68 47.804 84.899 80.333"/><path d="M471.5 419.12c-34.494-26.733-61.158-47.842-62.399-46.418-10.898 12.653 30.248 62.394 62.399 99.704"/></g><path d="M415.808 54.952h-11.072L401.984 61h-3.232l11.52-25.152L421.792 61h-3.232zM414.56 52.2l-4.288-9.76-4.288 9.76zm15.744-2.72v-2.496c2.592 0 4.736-.96 4.736-3.872 0-2.432-1.792-4.128-4.192-4.128-2.176 0-3.68 1.376-4 3.456h-2.976c.576-3.968 3.104-6.08 7.072-6.08 3.84 0 6.976 2.464 6.976 6.496 0 2.368-1.024 4.288-3.072 5.44 2.368 1.12 3.424 3.392 3.424 5.984 0 4.512-3.392 7.232-7.712 7.232-3.776 0-7.168-2.496-7.36-6.464h2.912c.288 2.368 2.368 3.84 4.672 3.84 2.688 0 4.608-2.112 4.608-4.736 0-3.072-2.112-4.896-5.088-4.672zM77.472 555.936h7.296V558H73.08l7.92-9.72c.744-.912 1.608-2.04 1.608-3.24 0-1.896-1.68-3.456-3.552-3.456-1.848 0-3.36 1.488-3.48 3.312H73.32c.36-3.216 2.448-5.376 5.736-5.376 3.072 0 5.712 2.28 5.712 5.424 0 1.344-.504 2.688-1.344 3.72zm13.512 2.448l-1.632-1.128 4.824-6.504-.048-.048c-.528.264-1.128.336-1.752.336-3 0-5.256-2.688-5.256-5.568 0-3.312 2.688-5.952 5.976-5.952 3.12 0 6.024 2.592 6.024 5.784 0 1.8-.912 3.36-1.968 4.776zm2.136-9.264c2.304 0 3.84-1.824 3.84-3.792 0-1.92-1.728-3.792-3.696-3.792-2.16 0-3.984 1.728-3.984 3.792 0 2.16 1.968 3.792 3.84 3.792zm10.104 6.48c.768 0 1.392.648 1.392 1.392a1.393 1.393 0 0 1-2.784 0c0-.744.624-1.392 1.392-1.392zm13.944-13.632h-9.36v-2.064h13.032l-11.28 18.48-1.752-1.08zm6.657 9.35v-1.909h22.67v-.136l-5.25-5.25 1.296-1.296 7.636 7.637-7.636 7.636-1.296-1.295 5.25-5.25v-.137zM5.54 45.844v2.064H3.572v-2.064H.932v-2.16h2.64v-8.928l16.224 11.088zm0-2.16h7.464v-.048L5.54 38.548zM2.996 53.932v7.296H.932V49.54l9.72 7.92c.912.744 2.04 1.608 3.24 1.608 1.896 0 3.456-1.68 3.456-3.552 0-1.848-1.488-3.36-3.312-3.48V49.78c3.216.36 5.376 2.448 5.376 5.736 0 3.072-2.28 5.712-5.424 5.712-1.344 0-2.688-.504-3.72-1.344l-7.272-5.952zm.336 11.88c0 .768-.648 1.392-1.392 1.392a1.393 1.393 0 0 1 0-2.784c.744 0 1.392.624 1.392 1.392zM.548 76.204c0-4.656 5.736-6.312 9.432-6.312 3.72 0 9.432 1.632 9.432 6.312S13.7 82.516 9.98 82.516c-3.696 0-9.432-1.656-9.432-6.312zm16.944 0c0-3.24-4.992-4.152-7.488-4.152s-7.44.912-7.44 4.152 4.944 4.152 7.44 4.152 7.488-.912 7.488-4.152zM7.614 86.412h1.91v22.67h.136l5.25-5.25 1.295 1.296-7.636 7.636-7.637-7.636 1.296-1.295 5.25 5.25h.136v-22.67z" fill="#2626f7"/></g></svg>