<?xml version="1.0" encoding="UTF-8"?>
<svg width="473px" height="594px" viewBox="0 0 473 594" version="1.1" xmlns="http://www.w3.org/2000/svg" xmlns:xlink="http://www.w3.org/1999/xlink">
    <!-- Generator: Sketch 49.3 (51167) - http://www.bohemiancoding.com/sketch -->
    <title>hero-poster</title>
    <desc>Created with Sketch.</desc>
    <defs>
        <rect id="path-1" x="0" y="0" width="432" height="592"></rect>
    </defs>
    <g id="Page-1" stroke="none" stroke-width="1" fill="none" fill-rule="evenodd">
        <g id="yandp-desktop" transform="translate(-728.000000, -63.000000)">
            <g id="Main">
                <g id="hero-poster" transform="translate(728.000000, 64.000000)">
                    <g id="orange-ex" transform="translate(40.000000, 0.000000)">
                        <mask id="mask-2" fill="white">
                            <use xlink:href="#path-1"></use>
                        </mask>
                        <use id="Mask" stroke="#2626F7" stroke-width="2" xlink:href="#path-1"></use>
                        <path d="M306.700318,517.802136 C300.800318,517.402136 323.500318,389.502136 316.100318,388.302136 C308.700318,387.202136 267.500318,468.502136 261.600318,467.202136 C255.700318,465.902136 291.600318,373.902136 287.000318,373.702136 C282.400318,373.502136 201.900318,496.102136 195.500318,493.602136 C189.000318,491.102136 271.900318,357.802136 265.400318,356.202136 C258.900318,354.602136 91.7003179,522.002136 83.9003179,517.302136 C76.1003179,512.602136 215.400318,366.102136 208.900318,363.002136 C202.400318,359.902136 104.800318,421.702136 96.1003179,419.002136 C87.4003179,416.202136 193.800318,355.402136 192.900318,352.802136 C192.100318,350.202136 97.0003179,365.102136 92.3003179,362.002136 C87.7003179,359.002136 176.500318,355.602136 209.800318,340.102136 C218.700318,336.002136 86.0003179,312.702136 90.4003179,309.402136 C94.8003179,306.102136 220.000318,328.602136 222.000318,324.502136 C224.000318,320.402136 75.6003179,246.502136 80.1003179,241.302136 C84.5003179,236.102136 224.600318,295.702136 235.200318,290.902136 C245.800318,286.302136 80.4003179,195.902136 84.9003179,191.702136 C89.3003179,187.502136 245.500318,278.502136 254.100318,274.902136 C262.600318,271.302136 77.6003179,145.802136 81.1003179,144.002136 C84.6003179,142.202136 240.800318,234.702136 247.500318,231.102136 C254.200318,227.502136 183.800318,154.002136 192.000318,152.202136 C200.200318,150.402136 253.900318,216.602136 264.400318,214.002136 C274.800318,211.402136 245.900318,146.702136 252.200318,146.802136 C258.500318,147.002136 297.200318,226.302136 303.000318,226.102136 C308.700318,225.902136 309.800318,144.702136 315.200318,144.802136 C320.600318,145.002136 319.900318,266.702136 326.600318,267.502136 C333.200318,268.402136 383.100318,142.402136 391.300318,143.002136 C399.500318,143.602136 364.700318,254.802136 384.700318,262.302136 C404.700318,269.802136 582.400318,141.902136 585.900318,146.402136 C589.400318,150.902136 450.400318,257.602136 454.300318,260.802136 C458.200318,264.002136 581.500318,205.602136 585.900318,209.202136 C590.300318,212.802136 463.600318,273.602136 468.400318,278.802136 C473.200318,284.002136 586.200318,267.902136 586.800318,272.002136 C587.500318,276.002136 406.100318,304.002136 409.100318,315.802136 C412.100318,327.602136 589.800318,320.502136 588.600318,325.002136 C587.400318,329.502136 409.900318,333.002136 406.200318,336.202136 C402.500318,339.402136 591.600318,388.602136 588.600318,391.702136 C585.500318,394.802136 403.300318,353.402136 399.700318,357.102136 C396.000318,360.802136 613.800318,506.902136 590.500318,520.202136 C567.200318,533.502136 373.000318,368.302136 369.600318,372.202136 C351.600318,393.102136 475.600318,515.202136 466.500318,515.302136 C456.600318,515.502136 356.400318,405.502136 347.100318,405.402136 C337.800318,405.202136 312.600318,518.202136 306.700318,517.802136 Z" id="path10" stroke="#2626F7" stroke-width="2" fill-opacity="0" fill="#2626F7" fill-rule="nonzero" mask="url(#mask-2)"></path>
                    </g>
                    <path d="M415.808,53.952 L404.736,53.952 L401.984,60 L398.752,60 L410.272,34.848 L421.792,60 L418.56,60 L415.808,53.952 Z M414.56,51.2 L410.272,41.44 L405.984,51.2 L414.56,51.2 Z M430.304,48.48 L430.304,45.984 C432.896,45.984 435.04,45.024 435.04,42.112 C435.04,39.68 433.248,37.984 430.848,37.984 C428.672,37.984 427.168,39.36 426.848,41.44 L423.872,41.44 C424.448,37.472 426.976,35.36 430.944,35.36 C434.784,35.36 437.92,37.824 437.92,41.856 C437.92,44.224 436.896,46.144 434.848,47.296 C437.216,48.416 438.272,50.688 438.272,53.28 C438.272,57.792 434.88,60.512 430.56,60.512 C426.784,60.512 423.392,58.016 423.2,54.048 L426.112,54.048 C426.4,56.416 428.48,57.888 430.784,57.888 C433.472,57.888 435.392,55.776 435.392,53.152 C435.392,50.08 433.28,48.256 430.304,48.48 Z" id="A3" fill="#2626F7"></path>
                    <path d="M77.472,554.936 L84.768,554.936 L84.768,557 L73.08,557 L81,547.28 C81.744,546.368 82.608,545.24 82.608,544.04 C82.608,542.144 80.928,540.584 79.056,540.584 C77.208,540.584 75.696,542.072 75.576,543.896 L73.32,543.896 C73.68,540.68 75.768,538.52 79.056,538.52 C82.128,538.52 84.768,540.8 84.768,543.944 C84.768,545.288 84.264,546.632 83.424,547.664 L77.472,554.936 Z M90.984,557.384 L89.352,556.256 L94.176,549.752 L94.128,549.704 C93.6,549.968 93,550.04 92.376,550.04 C89.376,550.04 87.12,547.352 87.12,544.472 C87.12,541.16 89.808,538.52 93.096,538.52 C96.216,538.52 99.12,541.112 99.12,544.304 C99.12,546.104 98.208,547.664 97.152,549.08 L90.984,557.384 Z M93.12,548.12 C95.424,548.12 96.96,546.296 96.96,544.328 C96.96,542.408 95.232,540.536 93.264,540.536 C91.104,540.536 89.28,542.264 89.28,544.328 C89.28,546.488 91.248,548.12 93.12,548.12 Z M103.224,554.6 C103.992,554.6 104.616,555.248 104.616,555.992 C104.616,556.76 103.992,557.384 103.224,557.384 C102.456,557.384 101.832,556.76 101.832,555.992 C101.832,555.248 102.456,554.6 103.224,554.6 Z M117.168,540.968 L107.808,540.968 L107.808,538.904 L120.84,538.904 L109.56,557.384 L107.808,556.304 L117.168,540.968 Z M123.824724,550.318188 L123.824724,548.409099 L146.495157,548.409099 L146.495157,548.272736 L141.245162,543.022741 L142.540615,541.727287 L150.176972,549.363644 L142.540615,557 L141.245162,555.704547 L146.495157,550.454552 L146.495157,550.318188 L123.824724,550.318188 Z" id="29.7⟶" fill="#2626F7"></path>
                    <path d="M-17.744,77.392 L-15.68,77.392 L-15.68,79.36 L-17.744,79.36 L-17.744,82 L-19.904,82 L-19.904,79.36 L-28.832,79.36 L-17.744,63.136 L-17.744,77.392 Z M-19.904,77.392 L-19.904,69.928 L-19.952,69.928 L-25.04,77.392 L-19.904,77.392 Z M-9.656,79.936 L-2.36,79.936 L-2.36,82 L-14.048,82 L-6.128,72.28 C-5.384,71.368 -4.52,70.24 -4.52,69.04 C-4.52,67.144 -6.2,65.584 -8.072,65.584 C-9.92,65.584 -11.432,67.072 -11.552,68.896 L-13.808,68.896 C-13.448,65.68 -11.36,63.52 -8.072,63.52 C-5,63.52 -2.36,65.8 -2.36,68.944 C-2.36,70.288 -2.864,71.632 -3.704,72.664 L-9.656,79.936 Z M2.224,79.6 C2.992,79.6 3.616,80.248 3.616,80.992 C3.616,81.76 2.992,82.384 2.224,82.384 C1.456,82.384 0.832,81.76 0.832,80.992 C0.832,80.248 1.456,79.6 2.224,79.6 Z M12.616,82.384 C7.96,82.384 6.304,76.648 6.304,72.952 C6.304,69.232 7.936,63.52 12.616,63.52 C17.296,63.52 18.928,69.232 18.928,72.952 C18.928,76.648 17.272,82.384 12.616,82.384 Z M12.616,65.44 C9.376,65.44 8.464,70.432 8.464,72.928 C8.464,75.424 9.376,80.368 12.616,80.368 C15.856,80.368 16.768,75.424 16.768,72.928 C16.768,70.432 15.856,65.44 12.616,65.44 Z M22.8247242,75.3181882 L22.8247242,73.4090991 L45.4951571,73.4090991 L45.4951571,73.2727356 L40.2451621,68.0227406 L41.5406154,66.7272873 L49.1769717,74.3636436 L41.5406154,82 L40.2451621,80.7045467 L45.4951571,75.4545517 L45.4951571,75.3181882 L22.8247242,75.3181882 Z" id="42.0⟶" fill="#2626F7" transform="translate(10.172486, 72.760000) rotate(-270.000000) translate(-10.172486, -72.760000) "></path>
                </g>
            </g>
        </g>
    </g>
</svg>