<svg height="64" viewBox="0 0 112 64" width="112" xmlns="http://www.w3.org/2000/svg"><path d="M37.849 25.568c.445-.001.537.123.537.548-.013 12.451-.012 24.9-.003 37.351 0 .392-.073.535-.51.533-3.928-.02-7.858-.02-11.787 0-.44.002-.503-.149-.502-.533.01-8.16.008-16.32.006-24.48 0-.67.075-.576-.572-.577-3.915-.004-7.829-.002-11.743-.001-.166 0-.331.01-.496.016v24.788c0 .77 0 .77-.763.77-3.807 0-7.615-.005-11.422.007-.423.001-.58-.123-.58-.563.009-8.279.007-16.556.008-24.834 0-.06.005-.12.009-.18-.01-.105-.03-.208-.03-.312V25.885c0-.104.018-.208.028-.313-.007-.18-.018-.36-.018-.54L.01.739C.01.001.01 0 .75 0h11.288c.744 0 .744.002.744.73l.001 24.834c.196.005.39.016.586.016 8.16 0 16.319.004 24.48-.011zm24.014 9.383c.007 2.559-.008 5.118.014 7.677.003.413-.121.517-.508.485a8.311 8.311 0 0 0-1.218 0c-.312.02-.41-.072-.404-.395.02-1.234.008-2.469.008-3.703 0-1.521.004-3.041 0-4.562-.005-1.412-.888-2.36-2.285-2.463-2.443-.18-4.01 1.365-4.026 3.992a459.28 459.28 0 0 0 .007 6.639c.004.395-.088.533-.494.494a7.235 7.235 0 0 0-1.218-.002c-.326.024-.395-.096-.394-.404.013-2.574.007-5.148.007-7.723 0-2.996.006-5.992-.008-8.987 0-.33.07-.454.419-.428a10.2 10.2 0 0 0 1.308.002c.3-.017.378.087.376.379-.011 1.897-.006 3.793-.006 5.69v.589c1.484-1.946 3.758-2.61 6.006-1.822 1.368.48 2.037 1.513 2.296 2.879.104.55.119 1.107.12 1.663zm49.877 4.193c.078 1.565-.527 2.751-1.919 3.497-1.089.583-2.274.751-3.864.751a6.313 6.313 0 0 1-2.82-.668c-1.367-.706-2.017-1.877-2.146-3.378-.015-.187.051-.247.218-.246l1.625-.001c.163 0 .248.065.269.233.172 1.346 1.1 1.892 2.294 2.123a5.92 5.92 0 0 0 2.551-.076c.232-.057.462-.145.673-.254 1.17-.605 1.249-2.063.147-2.787-.627-.412-1.352-.57-2.071-.736-1.053-.243-2.125-.418-3.137-.818-.984-.39-1.818-.946-2.16-2.022-.534-1.684.25-3.384 1.957-4.103 1.862-.784 3.765-.742 5.628-.017 1.39.54 2.015 1.684 2.182 3.117.03.246-.032.36-.305.35-.497-.016-.994-.007-1.49-.003-.169.001-.27-.027-.31-.23-.217-1.087-.962-1.613-1.993-1.81-.827-.16-1.65-.135-2.45.132-.601.2-1.077.549-1.134 1.256-.06.726.358 1.14.951 1.434 1.012.503 2.128.63 3.206.896.656.162 1.314.32 1.94.58 1.244.518 2.086 1.346 2.158 2.78zm-24.67-8.726c.381-.02.459.072.318.448-1.07 2.886-2.122 5.779-3.18 8.67-.391 1.072-.791 2.142-1.167 3.218-.096.273-.229.373-.518.36a21.293 21.293 0 0 0-1.58-.003c-.215.006-.316-.07-.39-.27a3945.88 3945.88 0 0 0-4.467-12.038c-.12-.322-.04-.393.272-.383.497.015.995.027 1.49-.004.345-.02.497.1.606.429 1.074 3.235 2.165 6.464 3.253 9.695.038.114.078.227.161.468.454-1.38.867-2.63 1.277-3.884.696-2.126 1.394-4.252 2.08-6.381.079-.244.194-.334.447-.324.466.018.934.023 1.399 0zM75.927 41.462c0 .478-.007.942.003 1.406.006.198-.119.262-.261.315-.622.234-1.26.29-1.903.115-.562-.154-.881-.549-1.014-1.103-.048-.202-.08-.407-.119-.611-.119-.025-.156.077-.216.136-1.786 1.72-3.903 2.036-6.19 1.355-1.404-.419-2.124-1.482-2.216-2.93-.093-1.49.357-2.737 1.78-3.46 1.05-.532 2.196-.71 3.338-.897.742-.121 1.495-.18 2.22-.384.609-.173 1.142-.464 1.2-1.178.064-.75-.156-1.405-.827-1.831-.975-.623-3.26-.558-4.209.106-.527.37-.809.891-.876 1.513-.033.3-.149.377-.425.366-.45-.016-.903-.016-1.355 0-.281.011-.353-.09-.338-.368.09-1.74 1.268-3.132 3.142-3.62a8.893 8.893 0 0 1 4.333-.05c1.823.43 2.64 1.478 2.646 3.344.008 2.183.002 4.366.002 6.549 0 .12-.002.24.001.361.018.865.233 1.042 1.072.885.057-.01.117-.01.212-.019zm-4.285-.935c.822-.76.986-1.716.908-2.762 0-.3.005-.601-.002-.902-.003-.103.036-.288-.18-.187-1.168.553-2.46.509-3.691.752-.546.108-1.086.246-1.564.552-.713.456-.937 1.136-.866 1.944.058.67.443 1.102 1.033 1.364 1.274.568 3.34.188 4.362-.76zm28.355 1.266c-.012.27-.033.547.005.812.061.431-.168.588-.53.679a3.752 3.752 0 0 1-1.344.086c-.713-.082-1.192-.553-1.335-1.273-.035-.17-.063-.342-.105-.575-.637.646-1.294 1.164-2.098 1.46-1.37.505-2.764.573-4.162.143-1.577-.485-2.428-1.73-2.355-3.376.08-1.801.82-2.79 2.528-3.376 1.245-.428 2.55-.567 3.84-.77a7.814 7.814 0 0 0 1.014-.214c.554-.164 1.065-.42 1.147-1.07.09-.723-.07-1.38-.695-1.847a2.072 2.072 0 0 0-.817-.368c-.895-.187-1.794-.197-2.684.032-.95.244-1.557.84-1.687 1.83-.048.36-.2.433-.52.416a14.618 14.618 0 0 0-1.31-.001c-.264.01-.339-.09-.313-.342.158-1.484.816-2.665 2.203-3.283 1.968-.878 4.013-.882 6.025-.173 1.295.455 1.876 1.506 1.887 2.85.02 2.198.005 4.396.006 6.594 0 .226.002.45.011.677.03.724.248.918.958.793.283-.049.344.047.331.296zm-3.407-2.966c.061-.715.013-1.439.013-2.232-.593.321-1.165.442-1.742.535-.489.078-.982.13-1.473.2-.715.1-1.429.214-2.073.57-.755.421-1.124 1.18-1.01 2.048.098.75.582 1.266 1.449 1.471 1.187.283 2.334.13 3.394-.48.81-.467 1.36-1.16 1.442-2.112z" fill="#2626f7" fill-rule="evenodd"/></svg>