<?xml version="1.0" encoding="UTF-8"?>
<svg width="155px" height="72px" viewBox="0 0 155 72" version="1.1" xmlns="http://www.w3.org/2000/svg" xmlns:xlink="http://www.w3.org/1999/xlink">
    <!-- Generator: Sketch 49.3 (51167) - http://www.bohemiancoding.com/sketch -->
    <title>logo-umbrella</title>
    <desc>Created with Sketch.</desc>
    <defs></defs>
    <g id="Page-1" stroke="none" stroke-width="1" fill="none" fill-rule="evenodd">
        <g id="yandp-desktop" transform="translate(-1056.000000, -1040.000000)" fill="#2626F7">
            <g id="Main">
                <path d="M1128.83851,1085.70833 C1129.069,1084.89679 1129.54925,1084.73564 1130.30172,1085.1138 C1130.63494,1085.28073 1130.93606,1085.55424 1131.28533,1085.64092 C1131.96783,1085.81042 1132.67728,1085.9812 1133.37133,1085.96772 C1134.07565,1085.95424 1134.63808,1085.53049 1134.79988,1084.7748 C1134.95397,1084.05315 1134.67275,1083.45284 1134.1405,1082.97901 C1133.96458,1082.82171 1133.73794,1082.71962 1133.52799,1082.60406 C1132.27793,1081.92156 1132.06349,1081.30777 1132.61822,1079.97682 C1132.68049,1079.8285 1132.74919,1079.68212 1132.82945,1079.54344 C1133.48883,1078.40702 1134.59186,1077.81185 1135.5164,1078.08857 C1136.34014,1078.33575 1136.92183,1079.41182 1136.91669,1080.78386 C1136.87753,1081.10745 1136.8801,1081.54982 1136.76517,1081.95816 C1136.0249,1084.58091 1134.97708,1087.0624 1133.38161,1089.2858 C1133.36555,1089.30699 1133.34758,1089.32753 1133.33024,1089.34808 C1132.52705,1090.29381 1131.66992,1091.16698 1130.27604,1090.79332 C1129.30206,1090.53329 1128.53932,1089.185 1128.53932,1087.68775 C1128.53996,1087.02645 1128.65745,1086.34652 1128.83851,1085.70833 M1142.39461,1057.31269 C1144.18527,1054.25207 1146.30465,1051.47909 1149.42626,1049.66146 C1150.90553,1048.80113 1152.5055,1048.34399 1154.22875,1048.36518 C1157.56609,1048.40306 1160.34421,1049.87655 1162.86037,1051.90733 C1163.93387,1052.77345 1164.8674,1053.82383 1165.80414,1054.84725 C1166.05646,1055.12204 1166.08792,1055.60357 1166.22019,1055.99008 C1165.83046,1056.09409 1165.43946,1056.29249 1165.05102,1056.28735 C1163.13966,1056.26231 1161.22124,1056.04723 1159.31886,1056.15252 C1155.60015,1056.35926 1152.10423,1057.48797 1148.84457,1059.28698 C1147.71586,1059.90912 1146.6841,1060.18263 1145.45458,1059.59644 C1144.7188,1059.24524 1143.88029,1059.11619 1143.0893,1058.88185 C1142.20649,1058.62053 1141.93041,1058.10754 1142.39461,1057.31269 M1091.45619,1094.85488 C1090.67418,1095.79933 1089.8697,1096.75148 1088.93745,1097.53413 C1087.35418,1098.86251 1084.71987,1098.85288 1083.40047,1096.63398 C1082.68203,1095.42501 1082.36229,1095.48986 1081.32668,1096.44265 C1080.05222,1097.61374 1078.78611,1098.83812 1077.34472,1099.76908 C1075.27349,1101.1071 1072.98204,1101.28494 1070.71113,1100.17228 C1068.78115,1099.22655 1067.75067,1097.60989 1067.52275,1095.47445 C1067.27877,1093.18685 1067.79626,1091.00776 1068.75932,1088.98404 C1069.87327,1086.64122 1071.16249,1084.38123 1072.42796,1082.11418 C1073.87705,1079.51775 1075.43208,1076.98168 1076.83879,1074.36343 C1077.34986,1073.41321 1077.71711,1072.32623 1077.88853,1071.25915 C1078.37584,1068.21587 1076.57491,1065.91607 1073.50145,1065.48719 C1069.75706,1064.9652 1066.52244,1066.0875 1063.88172,1068.76096 C1061.2243,1071.45177 1059.76366,1074.73132 1059.67313,1078.56881 C1059.64038,1079.97425 1059.98388,1081.27824 1060.85513,1082.41658 C1061.67374,1083.48751 1061.39766,1084.65924 1061.0715,1085.80528 C1060.94052,1086.26434 1060.51806,1086.44861 1060.10843,1086.22261 C1059.46639,1085.8682 1058.77042,1085.51572 1058.28632,1084.98732 C1057.08441,1083.67498 1056.40513,1082.07565 1056.16179,1080.29655 C1056.13419,1080.09174 1056.05522,1079.89335 1056,1079.69239 L1056,1077.43368 C1056.21701,1076.38844 1056.3589,1075.32136 1056.66259,1074.30308 C1058.07637,1069.57315 1060.59574,1065.66953 1065.07721,1063.34405 C1068.00749,1061.82433 1071.12268,1061.31005 1074.38426,1061.93861 C1080.04002,1063.02816 1082.93178,1068.09324 1081.03583,1073.6116 C1080.05415,1076.46998 1078.56525,1079.07731 1077.016,1081.65319 C1075.60735,1083.99472 1074.17239,1086.32341 1072.85941,1088.71823 C1071.87516,1090.5121 1071.26714,1092.44208 1071.14965,1094.53771 C1071.05527,1096.22628 1072.505,1097.57201 1074.26613,1097.02691 C1075.25359,1096.72066 1076.225,1096.16272 1077.03205,1095.50463 C1079.12254,1093.80065 1080.80598,1091.67869 1082.18894,1089.38275 C1085.21553,1084.35748 1088.1028,1079.24681 1091.03629,1074.1644 C1091.79968,1072.84115 1092.51941,1071.49222 1093.25969,1070.15612 C1093.88247,1069.03383 1094.9046,1068.48489 1096.09688,1068.27237 C1097.19798,1068.0759 1097.74051,1068.71024 1097.42334,1069.78823 C1097.25833,1070.34681 1096.9906,1070.8842 1096.71067,1071.39848 C1093.5011,1077.31234 1090.34995,1083.25573 1087.76701,1089.48355 C1087.34776,1090.49412 1087.00169,1091.54515 1086.73396,1092.60645 C1086.6383,1092.98718 1086.87264,1093.45202 1086.95611,1093.87897 C1087.33042,1093.66325 1087.81195,1093.53356 1088.06042,1093.21767 C1089.96986,1090.79974 1091.83435,1088.34456 1093.71169,1085.90159 C1095.45869,1083.62811 1097.19927,1081.3495 1098.95525,1079.08309 C1099.28205,1078.66191 1099.62362,1078.2311 1100.03453,1077.90237 C1101.11765,1077.03497 1102.46659,1077.44781 1102.79788,1078.79353 C1103.14073,1080.18355 1103.33078,1080.18612 1104.40235,1079.21856 C1105.45594,1078.26641 1106.47422,1077.27189 1107.9201,1076.93546 C1109.57465,1076.55023 1110.86772,1077.05552 1111.78777,1078.46801 C1112.83558,1080.07505 1112.78101,1080.00828 1114.22111,1078.77363 C1115.3036,1077.84587 1116.48624,1076.98233 1117.74721,1076.33386 C1119.02616,1075.67641 1120.43416,1075.74126 1121.52692,1076.85135 C1122.63316,1077.97492 1122.76285,1079.36174 1122.26334,1080.8211 C1121.54233,1082.92444 1120.77188,1085.01108 1120.09645,1087.12918 C1119.84669,1087.91247 1119.7414,1088.75997 1119.69967,1089.58499 C1119.67976,1089.9837 1119.85568,1090.60777 1120.1324,1090.74709 C1120.41298,1090.8877 1121.03833,1090.67518 1121.31633,1090.40937 C1122.00653,1089.74807 1122.69223,1089.03412 1123.18596,1088.22129 C1124.05978,1086.78376 1124.87132,1085.29422 1125.56537,1083.76038 C1128.39293,1077.5088 1131.16912,1071.23283 1133.95174,1064.96007 C1134.1527,1064.50807 1134.25222,1064.01049 1134.48271,1063.26058 C1133.70841,1063.39862 1133.11837,1063.39605 1132.62849,1063.6182 C1131.90619,1063.94628 1131.21792,1064.38416 1130.58487,1064.86761 C1129.55503,1065.65348 1128.54445,1065.69392 1127.37658,1065.17002 C1123.65144,1063.50135 1119.87623,1063.5739 1116.10487,1065.02363 C1115.38642,1065.29907 1114.7142,1065.69713 1114.0208,1066.03934 C1113.66254,1066.2159 1113.31583,1066.42585 1112.94345,1066.56389 C1112.1319,1066.86308 1111.31651,1066.96196 1110.62696,1066.28396 C1109.95859,1065.62779 1110.05168,1064.82973 1110.2963,1064.02718 C1110.36629,1063.79733 1110.45681,1063.57005 1110.56403,1063.35496 C1114.27248,1055.92588 1119.23932,1049.57415 1126.18687,1044.95079 C1130.42821,1042.12837 1135.10806,1040.55087 1140.17506,1040.14446 C1140.43638,1040.12327 1140.69383,1040.04944 1140.95322,1040 L1144.15252,1040 C1144.96535,1040.11043 1145.79101,1040.16244 1146.58715,1040.34735 C1147.40768,1040.53867 1148.2449,1040.76788 1148.99096,1041.14797 C1149.85836,1041.5897 1149.84231,1042.30172 1149.00765,1042.80894 C1147.83785,1043.52032 1146.52166,1043.88051 1145.183,1043.76237 C1136.56421,1043.00605 1129.37076,1046.10647 1123.16156,1051.92274 C1120.96513,1053.98049 1119.03515,1056.27515 1117.37226,1058.78811 C1117.08976,1059.21378 1117.04482,1059.79933 1116.89073,1060.31039 C1117.41335,1060.38487 1117.95203,1060.58133 1118.45539,1060.51135 C1121.37733,1060.10943 1124.25304,1060.26417 1127.07353,1061.13863 C1128.06035,1061.44424 1128.95408,1061.33124 1129.84266,1060.8542 C1131.80924,1059.79933 1133.89781,1059.09051 1136.08846,1058.70207 C1137.11509,1058.52102 1137.66789,1057.81991 1138.20463,1057.01671 C1139.51248,1055.05784 1140.72722,1053.01036 1142.23987,1051.22291 C1143.57404,1049.64606 1145.13164,1048.18605 1146.81764,1047.00148 C1150.91901,1044.11935 1155.37094,1044.0224 1159.90184,1045.91707 C1163.65073,1047.48494 1166.78326,1049.91892 1169.1922,1053.2049 C1170.51802,1055.01418 1171.64802,1056.97177 1172.81589,1058.89276 C1173.26789,1059.63625 1173.25248,1060.44843 1172.63291,1061.13542 C1172.04737,1061.78388 1171.3103,1061.88597 1170.50775,1061.6131 C1170.15591,1061.49368 1169.80279,1061.37169 1169.45608,1061.23493 C1166.53928,1060.08118 1163.51012,1059.49371 1160.38594,1059.7043 C1156.17093,1059.98809 1152.19604,1061.05003 1148.81953,1063.79861 C1147.98616,1064.47597 1147.08216,1064.53247 1146.14093,1063.99315 C1144.59553,1063.10777 1142.94997,1062.52608 1141.17601,1062.31999 C1139.93622,1062.17617 1139.31152,1062.43748 1138.76642,1063.56491 C1137.38924,1066.41109 1136.03389,1069.26818 1134.71449,1072.1426 C1134.08785,1073.5063 1134.32284,1073.90309 1135.7501,1074.22475 C1138.50639,1074.84689 1140.33236,1076.91876 1140.45692,1079.77265 C1140.50893,1080.96299 1140.42097,1082.20663 1140.13012,1083.35781 C1139.35646,1086.42421 1138.13016,1089.30891 1136.11928,1091.78591 C1135.16199,1092.96535 1134.01851,1093.93612 1132.53732,1094.38619 C1130.54377,1094.99228 1128.74798,1094.60577 1127.18974,1093.19391 C1126.93228,1092.96085 1126.69858,1092.70083 1126.44497,1092.46199 C1125.74129,1091.79811 1125.39844,1091.7872 1124.65175,1092.38815 C1123.86267,1093.02506 1123.11598,1093.72874 1122.26848,1094.27191 C1121.70156,1094.63466 1121.00622,1094.88506 1120.33978,1094.98265 C1118.07273,1095.31523 1116.49202,1093.98941 1116.16008,1091.58817 C1115.82686,1089.18243 1116.37003,1086.88905 1117.03134,1084.61108 C1117.23294,1083.91575 1117.49489,1083.23839 1117.68686,1082.54049 C1117.81142,1082.08849 1117.85829,1081.61531 1117.95074,1081.09525 C1117.17066,1081.00537 1116.6994,1081.35464 1116.34563,1081.82205 C1114.82784,1083.82586 1113.242,1085.78731 1111.86931,1087.88871 C1110.65777,1089.74486 1109.70049,1091.76922 1108.61993,1093.71333 C1108.42603,1094.06132 1108.21223,1094.4138 1107.94129,1094.69951 C1107.49764,1095.16756 1106.96217,1095.43465 1106.28674,1095.19324 C1105.58692,1094.94412 1105.1484,1094.44783 1105.11758,1093.71654 C1105.09511,1093.19648 1105.17023,1092.63983 1105.34166,1092.14931 C1106.3304,1089.31469 1107.36859,1086.49741 1108.37467,1083.66856 C1108.66423,1082.85317 1108.844,1082.01851 1108.40934,1081.16331 C1107.54515,1081.16909 1106.98079,1081.66988 1106.5365,1082.27533 C1105.12721,1084.19696 1103.69353,1086.10383 1102.39018,1088.09738 C1100.99823,1090.22575 1099.74753,1092.44914 1098.42428,1094.62439 C1098.1604,1095.05712 1097.88112,1095.4905 1097.54597,1095.86802 C1096.85513,1096.64682 1096.04551,1096.80605 1095.25131,1096.38423 C1094.53607,1096.00285 1094.24908,1095.30046 1094.45774,1094.30272 C1094.58422,1093.70049 1094.80123,1093.11751 1094.93606,1092.51656 C1095.05677,1091.98174 1095.12097,1091.43536 1095.21086,1090.89347 C1095.13253,1090.84083 1095.05484,1090.78882 1094.97715,1090.73617 C1094.66063,1090.97822 1094.28118,1091.16955 1094.04041,1091.4726 C1093.15825,1092.58269 1092.36019,1093.76277 1091.45619,1094.85488 M1207.96133,1096.39322 C1208.79085,1097.22017 1209.38731,1098.28981 1210.09035,1099.24902 L1210.09035,1099.74404 C1209.24028,1100.65702 1207.9363,1100.75911 1206.60598,1100.00856 C1206.41786,1099.90327 1206.22718,1099.78577 1206.07309,1099.63489 C1203.56334,1097.1932 1200.44686,1096.4831 1197.12236,1096.43944 C1190.67304,1096.35534 1184.35148,1097.38646 1178.13651,1099.01339 C1172.36261,1100.52412 1166.65164,1102.28589 1160.9092,1103.92181 C1157.99561,1104.75198 1155.05184,1105.24506 1152.03296,1104.53368 C1147.28954,1103.41653 1144.38109,1099.76073 1144.20838,1094.80801 C1144.09987,1091.70052 1144.75026,1088.74135 1145.75763,1085.84958 C1146.38683,1084.03902 1147.13353,1082.27084 1147.81859,1080.47953 C1148.26352,1079.31487 1148.09531,1078.90781 1147.03208,1078.26834 C1146.01124,1077.65519 1144.95829,1077.07671 1144.02026,1076.34799 C1142.99556,1075.55314 1142.38754,1074.44818 1142.40488,1073.07742 C1142.43827,1070.4367 1145.43147,1068.7417 1147.68055,1070.0855 C1148.3457,1070.48357 1148.67186,1071.08901 1148.65068,1071.86653 C1148.6404,1072.27679 1148.58519,1072.68963 1148.51328,1073.09411 C1148.27315,1074.45139 1148.46127,1074.83084 1149.72225,1075.39455 C1150.24166,1075.62569 1150.7752,1075.82408 1151.29397,1076.0565 C1153.01721,1076.82952 1153.33823,1077.8279 1152.52284,1079.5505 C1151.52831,1081.65126 1150.42336,1083.72057 1149.67794,1085.91315 C1148.89786,1088.20717 1148.22949,1090.6007 1147.96497,1093.00259 C1147.25873,1099.39862 1151.92959,1101.805 1156.65053,1100.94338 C1159.90312,1100.34884 1163.08509,1099.31387 1166.26641,1098.36621 C1172.82552,1096.41119 1179.40968,1094.57367 1186.18387,1093.56309 C1190.49263,1092.92105 1194.81935,1092.4087 1199.18589,1092.82667 C1202.44747,1093.1387 1205.54276,1093.98042 1207.96133,1096.39322 M1178.51338,1080.21373 C1181.29536,1073.82412 1184.05935,1067.41203 1187.80311,1061.52385 C1189.36327,1059.06996 1191.20979,1056.79264 1193.04025,1054.53136 C1194.04248,1053.2935 1195.40618,1052.45307 1196.96314,1052.01263 C1199.09793,1051.40782 1201.33031,1052.39272 1201.86578,1054.3471 C1202.11489,1055.25815 1202.15149,1056.32651 1201.94988,1057.24913 C1201.16723,1060.84907 1198.78076,1063.19702 1195.7272,1064.94659 C1195.43443,1065.11352 1195.05755,1065.18478 1194.71599,1065.19762 C1193.93462,1065.2278 1193.54169,1064.83808 1193.59305,1064.04387 C1193.67844,1062.72447 1194.20428,1061.59576 1195.27777,1060.81183 C1196.32751,1060.04523 1197.2405,1059.17719 1197.79458,1057.97143 C1197.88575,1057.7724 1198.04241,1057.57272 1198.04626,1057.37176 C1198.05397,1056.96085 1197.97821,1056.54802 1197.93712,1056.13519 C1197.53327,1056.18205 1196.99588,1056.07676 1196.74934,1056.30019 C1195.70602,1057.24464 1194.62931,1058.19422 1193.78245,1059.31073 C1190.48685,1063.65415 1187.97646,1068.47975 1185.63557,1073.39523 C1184.43816,1075.91011 1183.28954,1078.44811 1182.14992,1080.99124 C1181.85072,1081.66025 1181.55217,1082.37228 1181.47962,1083.08687 C1181.42954,1083.5851 1181.62473,1084.30996 1181.97657,1084.58347 C1182.24622,1084.79278 1183.08345,1084.62713 1183.40062,1084.33179 C1184.37139,1083.43037 1185.2985,1082.45125 1186.08564,1081.38353 C1187.33121,1079.69496 1188.42268,1077.89082 1189.62779,1076.17014 C1191.44606,1073.57179 1193.69578,1071.47103 1196.65945,1070.27875 C1198.85973,1069.39402 1201.01122,1069.72082 1203.09465,1070.72369 C1203.38164,1070.86173 1203.64103,1071.08516 1203.86831,1071.31437 C1204.44422,1071.89478 1204.47055,1072.32173 1203.86253,1072.84307 C1202.6908,1073.84787 1201.42983,1074.62025 1199.80546,1073.8941 C1198.74416,1073.42027 1197.74001,1073.6559 1196.92333,1074.37242 C1194.52722,1076.47575 1192.63063,1078.92643 1192.03096,1082.19315 C1191.98666,1082.43456 1191.90063,1082.71577 1191.97767,1082.92315 C1192.13947,1083.35396 1192.31218,1083.87337 1192.64989,1084.10836 C1192.82838,1084.23356 1193.46978,1083.94015 1193.71376,1083.66407 C1194.94134,1082.2779 1196.10537,1080.83266 1197.29571,1079.41182 C1198.03342,1078.53093 1198.78333,1077.67637 1199.96597,1077.37076 C1201.32068,1077.02085 1201.98969,1077.60575 1201.69114,1078.99513 C1201.54347,1079.68533 1201.25391,1080.34471 1201.02342,1081.01564 C1200.56307,1082.35366 1200.85328,1083.42202 1201.85294,1084.04994 C1202.75501,1084.61686 1203.78549,1084.41076 1204.74341,1083.36744 C1205.50167,1082.53857 1206.29909,1081.79059 1207.46696,1081.77839 C1207.99536,1081.77197 1208.70354,1081.86956 1209.00209,1082.21241 C1209.24542,1082.49106 1209.15104,1083.2782 1208.94751,1083.71672 C1207.73919,1086.32726 1205.86314,1088.05179 1203.55371,1088.10508 C1201.24364,1088.1359 1199.90755,1087.54073 1198.75508,1086.41972 C1197.56794,1085.26597 1197.40294,1085.2955 1196.25753,1086.46402 C1195.8569,1086.87172 1195.45626,1087.28776 1195.00811,1087.63575 C1193.15133,1089.07649 1190.70771,1088.66558 1189.39473,1086.71506 C1188.26024,1085.03034 1188.23071,1085.04446 1186.75722,1086.39018 C1186.09912,1086.99242 1185.4115,1087.60236 1184.64169,1088.03125 C1182.99099,1088.95129 1181.2594,1089.07842 1179.66072,1087.91696 C1178.03185,1086.73432 1177.50602,1085.00016 1177.75642,1083.05605 C1177.88226,1082.08978 1178.12623,1081.1036 1178.51338,1080.21373 M1165.6417,1084.07241 C1168.57777,1080.66059 1170.72027,1076.75954 1172.73821,1072.7962 C1174.95903,1068.43545 1177.06237,1064.01755 1179.35831,1059.69467 C1180.2912,1057.93612 1181.49889,1056.28992 1182.75408,1054.72269 C1184.42853,1052.63027 1186.7585,1051.73847 1189.47756,1051.84377 C1190.15748,1051.86945 1190.95361,1051.86945 1191.27271,1052.56928 C1191.60272,1053.29414 1191.04093,1053.87712 1190.5273,1054.28674 C1189.88654,1054.79781 1189.16937,1055.35382 1188.39571,1055.54451 C1186.79574,1055.93808 1185.57522,1056.78686 1184.7579,1058.08892 C1183.30624,1060.40156 1181.88989,1062.74502 1180.62314,1065.15653 C1178.24886,1069.68037 1176.09802,1074.31656 1173.64541,1078.79738 C1172.24961,1081.34565 1170.51096,1083.72827 1168.78322,1086.08714 C1168.05258,1087.08487 1167.04072,1087.94457 1166.00767,1088.66687 C1161.32846,1091.94065 1155.42808,1089.41421 1154.64286,1083.84641 C1154.56518,1083.29361 1154.51831,1082.73632 1154.45218,1082.13472 C1154.76678,1077.65326 1156.75326,1074.01801 1160.53618,1071.35482 C1161.54226,1070.64664 1162.69858,1070.2107 1163.97753,1070.19079 C1166.12901,1070.15677 1167.59929,1071.47616 1167.79255,1073.56666 C1167.94279,1075.20451 1167.35018,1076.59517 1166.3685,1077.86706 C1165.15439,1079.44007 1163.53709,1080.51806 1161.74129,1081.36106 C1161.12621,1081.65062 1160.48481,1081.88818 1159.85304,1082.13986 C1158.35259,1082.73953 1158.08678,1083.51511 1158.91823,1084.88138 C1159.8402,1086.39596 1161.59362,1086.97894 1163.14993,1086.10512 C1164.07769,1085.58506 1164.95472,1084.87175 1165.6417,1084.07241 M1162.8379,1074.29473 C1161.7323,1074.61319 1160.25817,1076.37303 1160.12527,1077.53191 C1161.33295,1077.73031 1163.55699,1076.11749 1163.69952,1074.93999 C1163.76822,1074.36472 1163.44271,1074.12074 1162.8379,1074.29473 M1143.9567,1102.85474 C1144.37531,1103.08331 1144.88124,1103.59694 1144.87996,1103.98024 C1144.87867,1104.3462 1144.34064,1104.89515 1143.91818,1105.04154 C1142.73874,1105.44988 1141.50602,1105.73366 1140.27843,1105.99369 C1132.18227,1107.70345 1124.0906,1109.43504 1115.97774,1111.06904 C1113.51679,1111.56405 1110.99485,1111.77593 1109.35122,1112 C1106.1044,1111.88957 1103.76544,1111.61606 1101.53241,1110.78782 C1097.06893,1109.13264 1093.02021,1106.84118 1089.67966,1103.48715 C1089.2482,1103.05506 1088.60488,1102.6236 1088.88609,1101.91543 C1089.19299,1101.14498 1089.98912,1101.08719 1090.7249,1101.06344 C1091.84527,1101.0262 1092.75247,1101.4095 1093.63207,1102.14143 C1098.29395,1106.02065 1103.49065,1108.81161 1109.87833,1108.31852 C1113.09754,1108.06941 1116.29234,1107.38499 1119.46468,1106.74295 C1126.47386,1105.32468 1133.46186,1103.8101 1140.45756,1102.33276 C1141.69606,1102.0708 1142.88256,1102.26598 1143.9567,1102.85474" id="logo-umbrella"></path>
            </g>
        </g>
    </g>
</svg>