<svg height="64" viewBox="0 0 106 64" width="106" xmlns="http://www.w3.org/2000/svg"><path d="M12.439 46.699c3.962 0 4.544 2.156 4.544 4.718v7.98h-3.087V51.65c0-1.63-.408-2.505-2.097-2.505-.467 0-1.224.117-1.748.408.116.583.175 1.165.175 1.806v7.98H7.139v-7.69c0-1.571-.35-2.504-2.04-2.504-.523 0-1.28.117-1.63.35v9.902H.44V47.864c1.34-.757 3.379-1.165 5.3-1.165 1.34 0 2.33.291 2.972.699 1.106-.408 2.446-.7 3.727-.7zm12.291-.058c4.486 0 5.418 2.388 5.418 6.174 0 .35 0 .64-.059.991-1.397.233-4.135.524-5.824.64l-2.04.117c.116 1.98 1.107 2.446 2.913 2.446 1.631 0 3.145-.174 4.427-.348l.233 2.387c-1.282.233-2.97.466-5.36.466-4.135.058-5.242-2.68-5.242-6.408 0-4.543 1.399-6.465 5.534-6.465zm2.272 5.475v-.524c0-1.63-.583-2.563-2.33-2.563-2.272 0-2.563 1.457-2.563 3.378l2.156-.057c.814-.059 2.038-.176 2.737-.234zm12.757-5.242V41.98h3.087v16.37c-1.398.816-3.379 1.165-5.068 1.165-4.077 0-5.825-1.514-5.825-6.465 0-4.835 1.69-6.466 5.476-6.466.757 0 1.63.115 2.33.291zm-.058 9.903v-7.34c-.467-.175-1.165-.291-1.69-.291-2.912 0-3.029 1.689-3.029 3.96 0 2.04.117 4.02 2.738 4.02.699 0 1.514-.117 1.98-.35zm7.28-14.913c1.34 0 1.807.466 1.807 1.748 0 1.281-.409 1.747-1.806 1.747-1.398 0-1.806-.466-1.806-1.747 0-1.282.408-1.748 1.806-1.748zm-1.514 17.475V46.815h3.087v12.524zm10.66-12.582c2.738 0 5.01.758 5.01 4.02v7.688c-1.34.758-3.379 1.166-5.592 1.166-3.379-.06-4.719-1.399-4.719-4.078 0-2.214.933-3.611 3.38-3.961 1.28-.233 2.562-.233 3.96-.291 0-1.457-.641-2.097-2.272-2.097-1.456 0-3.087.175-4.369.35l-.232-2.33c1.281-.234 3.029-.467 4.834-.467zm2.039 10.078V53.28c-.932.058-1.98.058-2.854.291-1.049.233-1.515.642-1.515 1.923 0 1.34.757 1.69 2.097 1.69.7 0 1.573-.06 2.272-.35zM69.7 49.029c-2.855 0-3.204.874-3.204 3.844 0 2.797.116 4.02 3.204 4.02.756 0 1.457-.116 2.213-.292l.233 2.447c-1.049.292-2.388.466-4.02.466-4.135 0-4.776-3.204-4.776-6.581 0-4.079.933-6.35 5.476-6.35 1.398 0 2.447.232 3.32.466l-.233 2.27c-.756-.173-1.457-.29-2.213-.29zm9.145-2.388c4.078 0 5.533 1.805 5.533 6.466 0 4.659-1.455 6.466-5.533 6.466s-5.534-1.747-5.534-6.466c0-4.66 1.456-6.466 5.534-6.466zm-.058 10.368c1.98 0 2.446-.873 2.446-3.902s-.524-3.903-2.446-3.903c-1.923 0-2.447.815-2.447 3.903 0 3.146.524 3.902 2.447 3.902zm7.63-9.145c1.399-.816 3.379-1.165 5.069-1.165.465 0 .873 0 1.222.058l-.233 2.504c-.233-.058-.581-.058-.873-.058-.7 0-1.631.117-2.097.409v9.786h-3.088zM99.35 46.64c4.077 0 5.825 1.515 5.825 6.466 0 4.835-1.69 6.465-5.475 6.465-.758 0-1.631-.116-2.33-.29V64h-3.09V47.806c1.398-.816 3.379-1.165 5.068-1.165zm-.233 10.427c2.913 0 3.03-1.69 3.03-3.961 0-2.04-.117-4.02-2.739-4.02-.7 0-1.515.116-1.98.35v7.34c.465.174 1.106.29 1.689.29zM10.704 18.144L20.722.414l10.019 17.73zm62.86.805L63.55 36.596 53.533 18.95h20.031zM63.55.413l10.018 17.73H53.53L63.55.414zM32.12 18.95h20.488l10.25 18.06H42.37zm63.314 0l10.25 18.06H85.196l-10.25-18.06zM0 37.01l10.25-18.06h20.487l-10.25 18.06zm94.98-18.865H74.49L64.239 0h20.49L94.98 18.144zM41.9 0l10.252 18.144H31.663L21.412 0z" fill="#2626f7" fill-rule="evenodd"/></svg>