<svg width="506" height="82" viewBox="0 0 506 82" xmlns="http://www.w3.org/2000/svg"><title>mailing-tube</title><g transform="translate(1)" stroke="#2626F7" stroke-width="2" fill="none" fill-rule="evenodd"><path d="M24 1h456M24 81h456" stroke-linecap="square"/><ellipse cx="24" cy="41" rx="24" ry="40"/><path d="M480 81c13.255 0 24-17.909 24-40S493.255 1 480 1M151 80.5c2-17.5.5-36.5-13-56S109.255 1 96 1m151 79.5c2-17.5.5-36.5-13-56S205.255 1 192 1m151 79.5c2-17.5.5-36.5-13-56S301.255 1 288 1m151 79.5c2-17.5.5-36.5-13-56S397.255 1 384 1"/><ellipse cx="24" cy="41" rx="18" ry="34"/><path d="M25.712 7.272C16.852 9.395 10 23.686 10 41c0 17.643 7.115 32.148 16.22 33.836"/></g></svg>