<svg height="88" viewBox="0 0 112 88" width="112" xmlns="http://www.w3.org/2000/svg"><g style="stroke:#2626f7;stroke-width:2;fill:none;fill-rule:evenodd;stroke-linecap:round;stroke-linejoin:round" transform="translate(1 1)"><path d="m33 50.5-24.5-44 34 44.5 17-8 15.5 17"/><path d="m92.5 53.5-22 32.5-9-10.5"/><path d="m69 65 20-17.5 4 6 17 10-12.5-16h-8.5l-18.5 38.5 1-13.5-12-29"/><path d="m0 70.5 66.5 5.5 5-3.5-13-6-58.5 4 30-20.5 12.5 1 16 15.5"/><path d="m50.5 47 5-16 51.5-31-14.5 47.5"/><path d="m69 53 37-52"/></g></svg>