<?xml version="1.0" encoding="UTF-8"?>
<svg width="112px" height="88px" viewBox="0 0 112 88" version="1.1" xmlns="http://www.w3.org/2000/svg" xmlns:xlink="http://www.w3.org/1999/xlink">
    <!-- Generator: Sketch 49.3 (51167) - http://www.bohemiancoding.com/sketch -->
    <title>topic-hopeful</title>
    <desc>Created with Sketch.</desc>
    <defs></defs>
    <g id="Page-1" stroke="none" stroke-width="1" fill="none" fill-rule="evenodd" stroke-linecap="round" stroke-linejoin="round">
        <g id="yandp-desktop" transform="translate(-832.000000, -2072.000000)" stroke="#2626F7" stroke-width="2">
            <g id="Topics" transform="translate(0.000000, 1408.000000)">
                <g id="Group-2" transform="translate(768.000000, 608.000000)">
                    <g id="Group-15">
                        <g id="topic-hopeful" transform="translate(65.000000, 57.000000)">
                            <g id="Group-14">
                                <polyline id="Path-2" points="33 50.5 8.5 6.5 42.5 51 59.5 43 75 60"></polyline>
                                <polyline id="Path-3" points="92.5 53.5 70.5 86 61.5 75.5"></polyline>
                                <polyline id="Path-4" points="69 65 89 47.5 93 53.5 110 63.5 97.5 47.5 89 47.5 70.5 86 71.5 72.5 59.5 43.5"></polyline>
                                <polyline id="Path-5" points="0 70.5 66.5 76 71.5 72.5 58.5 66.5 0 70.5 30 50 42.5 51 58.5 66.5"></polyline>
                                <polyline id="Path-6" points="50.5 47 55.5 31 107 0 92.5 47.5"></polyline>
                                <path d="M69,53 L106,1" id="Path-7"></path>
                            </g>
                        </g>
                    </g>
                </g>
            </g>
        </g>
    </g>
</svg>