<?xml version="1.0" encoding="UTF-8"?>
<svg width="130px" height="90px" viewBox="0 0 130 90" version="1.1" xmlns="http://www.w3.org/2000/svg" xmlns:xlink="http://www.w3.org/1999/xlink">
    <!-- Generator: Sketch 49.3 (51167) - http://www.bohemiancoding.com/sketch -->
    <title>format-group</title>
    <desc>Created with Sketch.</desc>
    <defs></defs>
    <g id="Page-1" stroke="none" stroke-width="1" fill="none" fill-rule="evenodd">
        <g id="yandp-desktop" transform="translate(-823.000000, -3815.000000)" stroke="#2626F7" stroke-width="2">
            <g id="Format" transform="translate(0.000000, 3152.000000)">
                <g id="Group-8" transform="translate(768.000000, 608.000000)">
                    <g id="format-group" transform="translate(56.000000, 56.000000)">
                        <path d="M16,32 C7.163444,32 0,24.836556 0,16 C0,7.163444 7.163444,0 16,0 C24.836556,0 32,7.163444 32,16 C32,24.836556 24.836556,32 16,32 Z M16,40 C24.836556,40 32,47.163444 32,56 L32,88 L0,88 L0,56 C-1.082166e-15,47.163444 7.163444,40 16,40 Z M64,32 C55.163444,32 48,24.836556 48,16 C48,7.163444 55.163444,0 64,0 C72.836556,0 80,7.163444 80,16 C80,24.836556 72.836556,32 64,32 Z M64,40 C72.836556,40 80,47.163444 80,56 L80,88 L48,88 L48,56 C48,47.163444 55.163444,40 64,40 Z M112,32 C103.163444,32 96,24.836556 96,16 C96,7.163444 103.163444,0 112,0 C120.836556,0 128,7.163444 128,16 C128,24.836556 120.836556,32 112,32 Z M112,40 C120.836556,40 128,47.163444 128,56 L128,88 L96,88 L96,56 C96,47.163444 103.163444,40 112,40 Z" id="Combined-Shape"></path>
                    </g>
                </g>
            </g>
        </g>
    </g>
</svg>