<?xml version="1.0" encoding="UTF-8"?>
<svg width="506px" height="82px" viewBox="0 0 506 82" version="1.1" xmlns="http://www.w3.org/2000/svg" xmlns:xlink="http://www.w3.org/1999/xlink">
    <!-- Generator: Sketch 49.3 (51167) - http://www.bohemiancoding.com/sketch -->
    <title>mailing-tube</title>
    <desc>Created with Sketch.</desc>
    <defs></defs>
    <g id="Page-1" stroke="none" stroke-width="1" fill="none" fill-rule="evenodd">
        <g id="yandp-desktop" transform="translate(-383.000000, -5294.000000)" stroke="#2626F7" stroke-width="2">
            <g id="Submission" transform="translate(0.000000, 4088.000000)">
                <g id="Group-16" transform="translate(96.000000, 696.000000)">
                    <g id="mailing-tube" transform="translate(288.000000, 510.000000)">
                        <path d="M24,1 L480,1" id="Line" stroke-linecap="square"></path>
                        <path d="M24,81 L480,81" id="Line" stroke-linecap="square"></path>
                        <ellipse id="Oval-3" cx="24" cy="41" rx="24" ry="40"></ellipse>
                        <path d="M480,81 C493.254834,81 504,63.09139 504,41 C504,18.90861 493.254834,1 480,1" id="Oval-3"></path>
                        <path d="M151,80.5 C153,63 151.5,44 138,24.5 C124.5,5 109.254834,1.00001475 96,1" id="Oval-3"></path>
                        <path d="M247,80.5 C249,63 247.5,44 234,24.5 C220.5,5 205.254834,1.00001475 192,1" id="Oval-3"></path>
                        <path d="M343,80.5 C345,63 343.5,44 330,24.5 C316.5,5 301.254834,1.00001475 288,1" id="Oval-3"></path>
                        <path d="M439,80.5 C441,63 439.5,44 426,24.5 C412.5,5 397.254834,1.00001475 384,1" id="Oval-3"></path>
                        <ellipse id="Oval-3" cx="24" cy="41" rx="18" ry="34"></ellipse>
                        <path d="M25.7120893,7.27205513 C16.8512495,9.39520862 10,23.686309 10,41 C10,58.6433635 17.1146448,73.1479334 26.2204033,74.8359285" id="Oval-3"></path>
                    </g>
                </g>
            </g>
        </g>
    </g>
</svg>